<svg width="1080" height="1080" viewBox="0 0 1080 1080" fill="none" xmlns="http://www.w3.org/2000/svg">
<g clip-path="url(#clip0_704_10)">
<rect width="1080" height="1080" fill="#111111"/>
<g style="mix-blend-mode:color-dodge" filter="url(#filter0_f_704_10)">
<path d="M568.488 1134.55C732.166 1064.41 772.204 896.858 657.915 760.302L610.172 703.257C495.884 566.701 270.548 512.856 106.871 582.991L-69.6355 658.623C-233.313 728.759 -273.351 896.315 -159.063 1032.87L-111.32 1089.92C2.96824 1226.47 228.304 1280.32 391.982 1210.18L568.488 1134.55Z" fill="url(#paint0_radial_704_10)"/>
</g>
<g style="mix-blend-mode:color-dodge" filter="url(#filter1_f_704_10)">
<path d="M855.021 996.458C993.934 1033.67 1160.6 960.544 1227.27 833.122V833.122C1293.94 705.7 1235.38 572.235 1096.47 535.021L955.972 497.383C817.058 460.168 650.397 533.296 583.723 660.718V660.718C517.05 788.14 575.611 921.605 714.525 958.819L855.021 996.458Z" fill="url(#paint1_radial_704_10)"/>
</g>
<g style="mix-blend-mode:screen" filter="url(#filter2_f_704_10)">
<path d="M711.736 566.764C577.034 684.37 540.488 818.105 539.053 870.273C545.118 976.152 563.798 1140.32 589.999 949.964C622.751 712.017 753.789 674.8 986.503 464.902C1172.67 296.984 1076.41 253.242 1005.01 252.361L881.209 313.325C880.844 348.802 846.439 449.158 711.736 566.764Z" fill="url(#paint2_linear_704_10)"/>
</g>
<g style="mix-blend-mode:screen" filter="url(#filter3_f_704_10)">
<path d="M450.419 941.948C590.014 882.132 624.161 739.23 526.689 622.766V622.766C429.217 506.302 237.036 460.38 97.4416 520.196L14.7589 555.626C-124.836 615.441 -158.983 758.344 -61.5105 874.808V874.808C35.9616 991.271 228.142 1037.19 367.737 977.377L450.419 941.948Z" fill="url(#paint3_radial_704_10)"/>
</g>
<g style="mix-blend-mode:multiply" filter="url(#filter4_f_704_10)">
<path d="M798.419 1090.06C938.014 1030.24 972.161 887.339 874.689 770.876V770.876C777.217 654.412 585.036 608.49 445.442 668.306L362.759 703.735C223.164 763.551 189.017 906.454 286.489 1022.92V1022.92C383.962 1139.38 576.142 1185.3 715.737 1125.49L798.419 1090.06Z" fill="url(#paint4_radial_704_10)"/>
</g>
<g style="mix-blend-mode:multiply" filter="url(#filter5_f_704_10)">
<path d="M327.419 855.058C467.014 795.242 501.161 652.339 403.689 535.876V535.876C306.217 419.412 114.036 373.49 -25.5584 433.306L-108.241 468.735C-247.836 528.551 -281.983 671.454 -184.511 787.917V787.917C-87.0384 904.381 105.142 950.303 244.737 890.487L327.419 855.058Z" fill="url(#paint5_radial_704_10)"/>
</g>
<g style="mix-blend-mode:color-dodge" filter="url(#filter6_f_704_10)">
<path d="M91.3202 824.442C117.754 629.364 214.624 630.656 259.755 655.687C262.011 659.562 260.695 659.455 259.755 658.916C77.0153 739.863 58.278 1068.29 91.3202 824.442Z" fill="url(#paint6_linear_704_10)"/>
</g>
<g style="mix-blend-mode:color-dodge" filter="url(#filter7_f_704_10)">
<path d="M91.3202 824.442C117.754 629.364 214.624 630.656 259.755 655.687C262.011 659.562 260.695 659.455 259.755 658.916C77.0153 739.863 58.278 1068.29 91.3202 824.442Z" fill="url(#paint7_linear_704_10)"/>
</g>
<g style="mix-blend-mode:color-dodge" filter="url(#filter8_f_704_10)">
<path d="M437.918 1391.41C550.876 557.43 964.823 562.953 1157.68 669.962C1167.32 686.531 1161.69 686.071 1157.68 683.77C376.791 1029.82 296.722 2433.88 437.918 1391.41Z" fill="url(#paint8_linear_704_10)"/>
</g>
<g style="mix-blend-mode:color-dodge" filter="url(#filter9_f_704_10)">
<path d="M14.1144 833.178C26.2479 743.253 70.7128 743.849 91.4286 755.387C92.4644 757.174 91.8602 757.124 91.4286 756.876C7.54828 794.189 -1.05245 945.583 14.1144 833.178Z" fill="url(#paint9_linear_704_10)"/>
</g>
<g style="mix-blend-mode:color-dodge" filter="url(#filter10_f_704_10)">
<path d="M175.542 839.459C210.353 582.739 337.925 584.439 397.36 617.379C400.331 622.48 398.598 622.338 397.36 621.63C156.703 728.154 132.027 1160.36 175.542 839.459Z" fill="url(#paint10_linear_704_10)"/>
</g>
<g style="mix-blend-mode:color-dodge" filter="url(#filter11_f_704_10)">
<path d="M332.542 780.459C367.353 523.739 494.925 525.439 554.36 558.379C557.331 563.48 555.598 563.338 554.36 562.63C313.703 669.154 289.027 1101.36 332.542 780.459Z" fill="url(#paint11_linear_704_10)"/>
</g>
<path fill-rule="evenodd" clip-rule="evenodd" d="M541.835 274.806C551.004 274.806 560.587 275.082 563.138 275.427C565.758 275.841 571.756 276.601 576.582 277.153C581.476 277.705 589.956 279.155 595.541 280.26C601.194 281.433 608.088 283.021 610.915 283.781C613.741 284.609 619.326 286.266 623.324 287.509C627.323 288.751 634.631 291.375 639.526 293.377C644.42 295.31 651.453 298.348 655.038 300.005C658.622 301.731 664.689 304.837 668.481 306.909C672.273 308.98 675.996 311.051 676.754 311.534C677.513 311.948 682.476 315.193 687.785 318.645C693.093 322.097 700.884 327.62 705.02 330.934C709.157 334.248 716.258 340.254 720.739 344.328C725.22 348.401 732.115 355.305 736.044 359.654C739.974 364.004 745.558 370.562 748.454 374.152C751.349 377.742 756.382 384.715 759.76 389.686C763.07 394.657 767.344 401.285 769.274 404.529C771.205 407.774 774.169 413.228 775.962 416.611C777.754 419.994 780.788 426.415 782.718 430.764C784.579 435.114 787.544 442.294 789.13 446.643C790.784 450.992 793.542 459.553 795.266 465.629C796.989 471.704 799.195 480.541 800.091 485.305C801.057 490.068 802.298 497.525 802.918 501.874C803.47 506.223 804.297 511.816 804.711 514.301C805.124 517.062 805.331 526.866 805.193 539.845C804.986 554.412 804.573 563.456 803.745 569.187C803.125 573.743 801.953 581.061 801.195 585.411C800.367 589.76 798.85 597.078 797.678 601.635C796.575 606.191 794.645 613.026 793.542 616.823C792.37 620.621 789.405 628.836 786.924 635.119C784.442 641.401 780.167 650.998 777.41 656.521C774.652 662.044 770.653 669.5 768.447 673.09C766.241 676.68 762.587 682.41 760.312 685.862C757.968 689.314 754.107 694.699 751.625 697.944C749.212 701.189 744.662 706.781 741.56 710.371C738.457 713.961 732.735 720.174 728.736 724.11C724.807 728.114 718.464 733.982 714.672 737.227C710.881 740.541 705.296 745.097 702.263 747.376C699.229 749.723 693.507 753.796 689.508 756.42C685.51 759.112 679.305 763.047 675.72 765.188C672.135 767.397 664.483 771.401 658.829 774.232C653.107 776.993 644.627 780.859 639.87 782.723C635.113 784.587 627.805 787.211 623.669 788.592C619.532 789.903 613.741 791.629 610.915 792.458C608.088 793.217 601.263 794.805 595.747 795.91C590.232 797.014 581.683 798.395 576.788 799.017C571.893 799.638 565.344 800.466 562.311 800.812C559.277 801.226 550.453 801.502 542.662 801.502C534.872 801.502 526.047 801.226 523.014 800.812C519.98 800.466 513.431 799.638 508.536 799.017C503.641 798.395 495.092 797.014 489.577 795.91C484.061 794.736 475.719 792.734 470.962 791.353C466.205 790.041 459.242 787.832 455.45 786.521C451.659 785.209 444.489 782.378 439.594 780.238C434.63 778.167 430.562 776.165 430.425 775.82C430.356 775.543 429.735 775.267 429.046 775.267C428.425 775.267 423.53 772.851 418.222 769.951C412.913 767.121 403.744 761.529 397.884 757.662C392.024 753.796 383.13 747.376 378.235 743.509C373.272 739.574 364.999 732.118 359.69 726.94C354.45 721.831 347.349 714.375 343.902 710.371C340.455 706.367 335.078 699.67 331.975 695.528C328.873 691.385 324.323 684.827 321.91 681.029C319.428 677.232 315.981 671.502 314.188 668.257C312.396 665.012 308.811 658.04 306.191 652.724C303.571 647.408 300.193 639.882 298.676 636.016C297.091 632.081 294.609 625.108 293.023 620.482C291.506 615.788 289.025 607.02 287.577 600.944C286.06 594.869 284.268 586.032 283.509 581.268C282.751 576.505 281.786 569.256 281.372 565.044C280.958 560.833 280.338 555.172 279.993 552.479C279.579 549.718 279.304 543.021 279.304 537.636C279.304 532.182 279.579 525.899 279.924 523.621C280.338 521.343 280.958 515.751 281.372 511.194C281.855 506.638 282.82 499.181 283.509 494.625C284.268 490.068 286.06 481.369 287.577 475.294C289.025 469.219 291.369 460.865 292.747 456.654C294.126 452.442 296.815 444.986 298.745 440.084C300.676 435.114 305.088 425.517 308.604 418.682C312.051 411.847 317.153 402.665 319.911 398.316C322.668 393.966 327.287 387.132 330.183 383.127C333.078 379.123 337.767 373.048 340.593 369.665C343.42 366.282 348.246 360.828 351.348 357.583C354.382 354.407 359.966 348.884 363.758 345.294C367.549 341.704 373.616 336.388 377.201 333.489C380.786 330.589 386.853 326.032 390.645 323.34C394.437 320.647 400.917 316.298 405.123 313.743C409.259 311.12 417.67 306.494 423.737 303.457C429.804 300.35 436.009 297.312 437.526 296.691C439.042 296.07 443.386 294.275 447.177 292.825C450.969 291.306 458.139 288.821 463.034 287.233C467.929 285.714 475.099 283.643 478.891 282.745C482.683 281.779 488.887 280.398 492.679 279.638C496.471 278.948 503.779 277.774 508.881 277.153C513.982 276.601 519.704 275.772 521.635 275.496C523.496 275.151 532.597 274.875 541.766 274.806H541.835ZM510.328 284.747C505.571 285.369 498.126 286.611 493.782 287.509C489.439 288.406 483.234 289.787 479.994 290.616C476.754 291.444 470.273 293.377 465.516 294.896C460.759 296.415 453.175 299.176 448.625 300.971C444.075 302.766 436.767 306.011 432.424 308.082C428.081 310.223 422.289 313.122 419.67 314.641C416.981 316.091 412.017 319.059 408.639 321.131C405.261 323.271 398.711 327.689 394.161 331.003C389.611 334.317 383.544 338.943 380.717 341.29C377.891 343.568 371.065 349.851 365.619 355.167C360.173 360.483 353.21 367.801 350.107 371.391C346.936 374.981 342.11 381.056 339.214 384.853C336.388 388.65 331.355 395.9 328.046 400.939C324.805 405.91 319.704 414.609 316.808 420.201C313.844 425.862 309.707 434.63 307.501 439.739C305.364 444.848 302.261 453.133 300.676 458.034C299.09 462.936 297.435 468.39 296.884 470.116C296.401 471.842 295.091 477.572 293.919 482.888C292.816 488.204 291.162 497.041 290.265 502.564C288.818 511.677 288.68 514.853 288.68 538.464C288.68 562.007 288.818 565.251 290.265 574.365C291.162 579.888 292.61 588.103 293.575 592.66C294.54 597.216 295.919 602.947 296.608 605.432C297.367 607.917 298.745 612.75 299.711 616.133C300.745 619.585 302.951 625.937 304.674 630.286C306.398 634.635 310.328 643.472 313.568 649.962C316.739 656.452 320.255 663.425 321.496 665.496C322.668 667.567 325.908 672.745 328.666 676.887C331.424 681.029 335.974 687.588 338.801 691.385C341.627 695.182 346.729 701.534 350.176 705.538C353.554 709.542 360.724 716.999 365.964 722.107C371.203 727.216 378.649 733.913 382.441 736.951C386.233 739.988 392.575 744.821 396.574 747.652C400.573 750.482 407.812 755.246 412.775 758.215C417.67 761.183 425.461 765.395 430.011 767.673C434.561 769.882 442.489 773.403 447.591 775.474C452.693 777.545 460.759 780.514 465.516 782.033C470.273 783.552 477.236 785.623 481.028 786.521C484.82 787.487 491.162 788.937 495.161 789.696C499.16 790.456 506.123 791.629 510.673 792.251C516.395 793.01 525.358 793.424 539.629 793.562C553.9 793.701 563.345 793.424 569.963 792.734C575.272 792.182 582.235 791.284 585.475 790.732C588.715 790.18 594.92 788.937 599.263 787.97C603.607 787.004 611.673 784.795 617.188 783.069C622.704 781.343 631.253 778.443 636.147 776.51C641.042 774.577 648.695 771.332 653.038 769.261C657.382 767.19 664.207 763.6 668.205 761.321C672.204 759.043 679.512 754.487 684.407 751.242C689.302 747.928 697.092 742.267 701.642 738.677C706.192 735.018 712.88 729.218 716.465 725.836C720.05 722.453 726.117 716.377 729.84 712.442C733.631 708.438 739.285 701.948 742.456 697.944C745.696 693.94 751.832 685.448 756.106 678.958C760.45 672.469 766.448 662.389 769.481 656.521C772.515 650.652 776.582 642.092 778.513 637.535C780.512 632.978 783.614 624.556 785.545 618.895C787.406 613.164 790.164 603.085 791.612 596.457C793.128 589.829 794.99 579.888 795.886 574.365C797.334 565.251 797.472 562.007 797.472 538.464C797.472 514.922 797.334 511.677 795.886 502.564C794.99 497.041 793.059 486.962 791.543 480.127C790.095 473.292 787.337 463.212 785.476 457.689C783.614 452.166 780.65 444.296 778.857 440.084C777.065 435.873 773.135 427.519 770.033 421.444C766.93 415.368 760.795 404.944 756.313 398.316C751.901 391.688 745.627 382.92 742.387 378.778C739.147 374.705 733.425 368.215 729.702 364.349C726.048 360.483 719.912 354.338 716.12 350.748C712.328 347.158 705.986 341.635 701.987 338.459C697.988 335.284 691.163 330.244 686.82 327.275C682.476 324.306 675.375 319.819 671.101 317.334C666.896 314.779 660.691 311.327 657.313 309.67C654.003 308.013 647.247 304.976 642.352 302.835C637.457 300.764 628.426 297.45 622.359 295.517C616.292 293.515 608.364 291.168 604.779 290.27C601.194 289.373 595.127 287.992 591.335 287.233C587.543 286.473 580.718 285.369 576.168 284.816C571.618 284.195 562.655 283.436 556.175 283.021C549.694 282.676 543.076 282.4 541.352 282.469C539.629 282.469 533.906 282.745 528.598 283.09C523.289 283.366 515.085 284.126 510.328 284.747Z" fill="white"/>
<path opacity="0.1" d="M543.007 793.493C548.315 793.493 550.315 793.632 547.488 793.701C544.662 793.839 540.318 793.839 537.836 793.701C535.354 793.562 537.698 793.493 543.007 793.493Z" fill="black"/>
<path opacity="0.5" d="M288.059 532.941C288.197 535.772 288.197 540.605 288.059 543.642C287.99 546.68 287.853 544.333 287.853 538.464C287.853 532.596 287.99 530.111 288.059 532.941ZM798.23 532.941C798.368 535.772 798.368 540.605 798.23 543.642C798.161 546.68 798.023 544.333 798.023 538.464C798.023 532.596 798.161 530.111 798.23 532.941Z" fill="#010101"/>
<path fill-rule="evenodd" clip-rule="evenodd" d="M552.59 294.067C553.762 293.998 555.416 294.551 556.244 295.241C557.14 296.001 558.036 297.727 558.312 299.453C558.864 302.283 558.795 302.352 557.002 302.352C555.347 302.352 555.072 302.076 555.072 300.419C555.141 299.383 554.727 298.141 554.244 297.657C553.762 297.243 552.797 296.967 552.176 297.174C551.349 297.381 550.797 298.486 550.522 300.488C550.315 302.076 550.246 306.011 550.384 309.256C550.59 314.503 550.728 315.124 551.969 315.331C552.728 315.469 553.555 315.331 553.831 314.986C554.107 314.71 554.589 313.122 554.865 311.465C555.347 308.911 555.279 308.566 554.244 308.566C553.348 308.566 553.003 308.013 553.003 306.84C553.003 305.597 553.348 305.114 554.382 305.114C555.141 305.114 556.244 305.252 556.795 305.459C557.554 305.735 557.829 306.978 557.829 310.637C557.829 314.848 557.623 315.677 556.106 317.195C555.072 318.3 553.693 318.921 552.314 318.921C550.935 318.921 549.625 318.3 546.523 315.124L546.937 306.218C547.35 298.348 547.557 297.174 548.936 295.724C549.901 294.689 551.28 294.067 552.59 294.067ZM525.22 294.896C526.943 295.034 528.115 295.655 528.943 296.829C529.839 298.072 530.39 300.764 530.942 306.356C531.287 310.568 531.494 314.848 531.287 315.815C531.08 316.85 530.115 317.955 528.874 318.576C527.771 319.129 526.185 319.612 525.427 319.612C524.668 319.612 523.221 318.921 522.255 318.024C520.739 316.712 520.463 315.677 519.911 309.946C519.567 306.356 519.291 302.214 519.291 300.764C519.291 298.9 519.773 297.657 521.014 296.415C522.324 295.103 523.289 294.758 525.22 294.896ZM524.944 315.4C525.427 315.953 526.116 316.091 526.737 315.746C527.495 315.262 527.633 313.744 527.219 307.875C526.943 303.871 526.599 300.074 526.392 299.383C526.254 298.762 525.496 298.21 524.599 298.21C523.152 298.21 523.152 298.348 523.634 306.356C523.91 311.12 524.461 314.848 524.944 315.4ZM577.34 296.553C578.167 296.76 578.926 297.036 578.995 297.105C579.064 297.105 578.512 301.869 577.754 307.53C576.995 313.26 576.237 318.576 576.099 319.474C575.823 320.578 575.41 320.924 574.375 320.647C573.479 320.44 572.997 319.75 572.997 318.783C572.997 317.886 573.617 312.708 574.375 307.185C575.134 301.662 575.754 296.898 575.823 296.622C575.823 296.277 576.582 296.277 577.34 296.553ZM495.437 299.176C495.851 299.245 497.091 303.94 500.263 319.612L503.572 319.129C506.537 318.645 506.812 318.714 506.812 319.957C506.812 321.062 506.123 321.476 502.883 322.235C500.676 322.719 498.608 323.064 498.195 323.064C497.85 323.064 496.402 317.955 495.092 311.672C493.024 301.662 492.817 300.143 493.713 299.591C494.265 299.176 495.092 299.038 495.437 299.176ZM599.47 300.833L601.952 301.317C603.262 301.593 604.434 301.869 604.503 301.869C604.572 301.938 604.158 307.461 603.676 314.089C603.124 320.716 602.642 326.17 602.642 326.17C602.642 326.17 601.814 326.101 600.918 326.032C599.401 325.825 599.264 325.618 599.608 323.616C599.953 321.614 599.815 321.269 598.436 320.855C597.54 320.578 596.299 320.302 595.747 320.302C595.196 320.302 594.3 321.062 593.886 322.028C593.335 322.995 592.369 323.754 591.611 323.754C590.646 323.754 590.37 323.409 590.577 322.58C590.784 321.89 592.921 316.712 595.265 311.12L599.47 300.833ZM596.368 316.781C598.781 317.403 599.539 317.472 599.539 317.334C599.608 317.264 599.815 315.055 599.953 312.501C600.16 309.946 600.229 307.806 600.16 307.806C600.091 307.806 599.195 309.877 598.229 312.294L596.368 316.781ZM471.859 305.114C473.031 305.114 474.547 305.666 475.237 306.287C475.926 306.978 477.512 310.844 478.822 314.917C480.132 318.99 481.235 323.202 481.235 324.237C481.235 325.273 480.683 326.654 479.994 327.275C479.373 327.965 477.857 328.725 476.754 328.932C475.306 329.277 474.065 329.07 472.755 328.311C471.169 327.344 470.411 325.756 468.412 319.405C467.102 315.124 465.999 310.775 465.93 309.739C465.93 308.497 466.55 307.461 467.791 306.494C468.825 305.735 470.687 305.045 471.859 305.114ZM471.997 317.472C473.238 321.476 474.616 325.066 475.03 325.411C475.49 325.871 476.041 325.756 476.685 325.066C477.512 324.168 477.374 323.133 475.444 317.126C474.272 313.329 473.031 309.877 472.755 309.394C472.479 308.911 471.79 308.497 471.238 308.497C470.756 308.497 470.135 308.911 469.928 309.394C469.79 309.877 470.687 313.536 471.997 317.472ZM446.971 314.02C447.384 314.02 450.004 318.921 452.762 324.859C456.485 333.005 457.588 335.905 456.898 336.319C456.416 336.595 455.657 336.802 455.175 336.802C454.692 336.802 452.279 334.317 449.866 331.279C447.384 328.242 445.04 325.756 444.696 325.756C444.282 325.756 444.006 325.963 444.006 326.101C444.006 326.309 445.247 329.277 446.764 332.66C448.281 336.112 449.315 339.219 449.177 339.564C448.97 339.978 448.418 340.254 447.936 340.323C447.453 340.323 444.902 335.629 442.283 329.83C439.594 324.099 437.319 319.198 437.25 318.921C437.112 318.714 437.801 318.162 438.767 317.679C439.87 317.126 440.835 317.057 441.386 317.403C441.869 317.748 443.661 319.75 445.385 321.89C447.04 324.03 448.694 325.549 448.97 325.273C449.315 324.997 448.556 322.65 447.453 320.095C446.281 317.541 445.523 315.124 445.73 314.71C445.937 314.365 446.488 314.02 446.971 314.02ZM643.317 315.4C643.662 315.4 645.386 316.16 647.178 317.057C648.971 317.955 650.694 319.198 650.97 319.819C651.246 320.44 651.522 321.545 651.522 322.304C651.522 323.064 649.798 327.275 647.73 331.625C644.489 338.39 643.593 339.633 642.008 340.047C640.698 340.323 639.043 339.909 632.907 336.802L635.182 331.832C636.423 329.07 638.629 324.237 640.077 321.131C641.525 317.955 642.973 315.4 643.317 315.4ZM638.216 335.836C638.491 335.974 639.388 336.181 640.146 336.181C641.18 336.181 642.214 334.593 644.696 329.07C647.247 323.547 647.799 321.752 647.109 321.062C646.696 320.578 645.937 320.233 645.524 320.233C645.11 320.233 643.18 323.685 641.249 327.827C639.319 332.039 637.94 335.629 638.216 335.836ZM542.248 324.514C543.765 324.445 549.625 324.721 555.347 325.066C561.001 325.48 569.205 326.24 573.617 326.861C577.96 327.413 585.682 328.863 590.853 330.037C595.954 331.21 604.021 333.42 608.778 334.938C613.466 336.457 620.498 338.874 624.289 340.392C628.081 341.911 635.665 345.432 641.18 348.263C646.627 351.024 655.313 356.064 660.484 359.447C665.586 362.83 672.549 367.801 675.996 370.424C679.374 373.117 685.096 378.019 688.75 381.401C692.335 384.784 697.644 390.031 700.47 393.138C703.297 396.176 707.709 401.285 710.329 404.529C712.88 407.705 717.913 414.678 721.498 419.994C725.014 425.31 729.771 433.249 732.046 437.599C734.321 442.017 737.561 448.645 739.285 452.442C740.939 456.239 743.697 463.419 745.42 468.321C747.144 473.292 749.695 481.853 751.005 487.307C752.384 492.83 754.176 501.874 755.003 507.328C756.313 515.958 756.52 520.238 756.52 538.05C756.52 554.136 756.244 560.626 755.348 567.047C754.659 571.603 753.211 579.681 752.039 584.997C750.867 590.313 748.454 599.219 746.661 604.673C744.8 610.196 741.904 618.135 740.112 622.277C738.32 626.489 735.562 632.357 734.045 635.395C732.528 638.433 729.426 644.025 727.151 647.822C724.876 651.619 721.153 657.418 718.878 660.594C716.603 663.839 712.466 669.293 709.778 672.676C707.02 676.128 701.436 682.479 697.299 686.76C693.162 691.109 686.199 697.599 681.856 701.258C677.444 704.917 670.825 710.095 667.033 712.787C663.242 715.411 656.83 719.553 652.9 721.9C648.902 724.317 642.214 727.907 638.078 729.978C633.872 731.98 627.737 734.742 624.427 736.122C621.118 737.503 618.016 738.608 617.533 738.608C617.051 738.608 615.741 739.091 614.638 739.712C613.466 740.334 610.846 741.3 608.778 741.853C606.64 742.474 600.918 743.924 596.023 745.235C591.059 746.478 584.234 747.997 580.856 748.549C577.409 749.171 571.342 750.068 567.412 750.482C563.414 750.966 553.003 751.311 544.317 751.311C535.561 751.311 525.013 750.966 520.876 750.482C516.671 750.068 509.846 749.033 505.709 748.273C501.504 747.514 495.437 746.202 492.266 745.512C489.025 744.752 483.924 743.302 480.89 742.336C477.857 741.3 473.307 739.712 470.894 738.815C468.412 737.848 465.792 736.813 465.033 736.537C464.275 736.191 461.931 735.225 459.863 734.465C457.726 733.637 451.383 730.599 445.73 727.7C440.008 724.8 431.321 719.691 426.426 716.377C421.462 713.132 414.016 707.678 409.88 704.364C405.674 700.982 398.091 694.078 392.92 688.969C387.818 683.791 380.993 676.335 377.891 672.331C374.719 668.395 369.549 661.215 366.377 656.452C363.206 651.757 358.656 644.025 356.105 639.399C353.623 634.704 351.624 630.631 351.624 630.217C351.624 629.872 351.003 628.56 350.245 627.317C349.487 626.075 347.35 621.035 345.419 616.064C343.489 611.162 341.145 604.604 340.248 601.566C339.352 598.528 337.767 592.936 336.87 589.139C335.905 585.342 334.457 578.369 333.699 573.605C332.872 568.911 331.906 560.35 331.424 554.62C331.01 548.958 330.666 541.502 330.666 538.05C330.666 534.667 331.01 527.349 331.424 521.826C331.838 516.372 332.872 507.949 333.63 503.186C334.457 498.491 335.767 492.07 336.457 489.033C337.146 485.995 338.732 480.265 339.904 476.261C341.076 472.325 342.455 468.114 342.937 466.94C343.42 465.836 344.385 463.35 345.074 461.417C345.695 459.553 347.143 455.963 348.246 453.478C349.349 451.061 351.21 446.988 352.382 444.503C353.554 442.086 356.036 437.254 357.967 433.802C359.828 430.419 363.62 424.344 366.24 420.339C368.928 416.404 373.616 409.845 376.65 405.91C379.752 401.975 385.681 395.209 389.887 390.791C394.023 386.441 400.573 380.159 404.365 376.914C408.156 373.669 413.947 368.974 417.257 366.489C420.566 364.004 426.633 359.93 430.7 357.376C434.768 354.753 442.007 350.679 446.764 348.263C451.452 345.847 459.242 342.326 463.999 340.392C468.687 338.528 475.719 335.974 479.511 334.8C483.303 333.558 490.128 331.694 494.679 330.589C499.229 329.484 507.433 327.896 512.948 327.137C518.395 326.309 526.668 325.411 531.218 325.135C535.768 324.859 540.732 324.583 542.248 324.514ZM505.365 334.8C501.366 335.56 496.057 336.664 493.644 337.286C491.162 337.838 485.233 339.564 480.545 341.083C475.788 342.602 470.549 344.397 468.963 345.156C467.378 345.916 465.792 346.468 465.447 346.468C465.102 346.468 463.999 346.951 462.896 347.503C461.793 348.056 457.174 350.334 452.624 352.612C448.074 354.891 442.903 357.445 441.248 358.343C439.525 359.24 437.939 360.138 437.801 360.345C437.595 360.552 434.354 362.761 430.562 365.246C426.771 367.732 420.359 372.288 416.429 375.395C412.431 378.502 406.846 383.265 404.02 385.958C401.124 388.72 395.885 394.036 392.3 397.902C388.646 401.699 383.682 407.498 381.2 410.743C378.787 413.919 374.995 419.028 372.858 422.065C370.79 425.103 367.067 431.04 364.654 435.183C362.241 439.394 358.863 445.884 357.07 449.681C355.278 453.478 352.658 459.553 351.21 463.143C349.831 466.802 347.97 471.911 347.074 474.535C346.177 477.227 344.868 481.715 344.109 484.545C343.351 487.445 342.11 492.692 341.352 496.282C340.593 499.941 339.421 506.776 338.732 511.47C337.836 517.96 337.491 524.795 337.491 539.086C337.491 555.655 337.698 559.383 339.076 568.082C339.904 573.605 341.076 580.164 341.696 582.58C342.248 585.066 343.213 588.932 343.765 591.21C344.316 593.488 345.557 597.7 346.453 600.53C347.35 603.43 348.797 607.779 349.762 610.196C350.659 612.681 352.244 616.547 353.141 618.826C354.106 621.104 355.829 625.039 356.932 627.455C358.104 629.941 361 635.395 363.344 639.537C365.688 643.749 369.48 649.962 371.755 653.345C374.03 656.797 377.339 661.422 379.063 663.701C380.786 665.979 384.716 670.812 387.818 674.402C390.921 678.061 397.057 684.412 401.331 688.555C405.674 692.766 412.638 698.841 416.774 702.017C420.842 705.262 427.667 710.164 431.872 712.925C436.078 715.687 444.627 720.52 450.9 723.626C457.105 726.802 463.793 729.978 465.723 730.806C467.584 731.566 470.549 732.808 472.272 733.43C473.927 734.12 477.236 735.225 479.511 735.984C481.786 736.744 487.784 738.401 492.955 739.643C498.057 740.955 504.261 742.336 506.743 742.75C509.156 743.164 513.707 743.924 516.74 744.545C520.256 745.235 528.253 745.719 539.146 745.995C549.763 746.271 558.657 746.133 563.276 745.581C567.205 745.166 573.135 744.338 576.375 743.717C579.546 743.164 585.13 742.06 588.784 741.3C592.369 740.541 597.471 739.367 600.16 738.677C602.78 737.917 606.847 736.744 609.122 735.984C611.397 735.225 616.775 733.154 621.187 731.428C625.53 729.633 633.735 725.766 639.457 722.867C645.11 719.898 652.556 715.687 656.003 713.478C659.381 711.199 664.483 707.678 667.378 705.538C670.205 703.467 675.651 699.049 679.443 695.735C683.235 692.49 689.302 686.691 692.887 682.962C696.541 679.234 701.642 673.504 704.331 670.259C706.951 667.084 710.812 662.113 712.88 659.213C714.948 656.383 716.741 653.897 716.947 653.69C717.154 653.552 717.775 652.516 718.395 651.481C718.947 650.514 720.464 647.822 721.773 645.613C723.083 643.403 724.324 641.47 724.531 641.263C724.738 641.125 727.289 635.947 730.184 629.872C733.149 623.796 736.32 616.685 737.354 613.993C738.388 611.369 739.56 608.263 740.043 607.089C740.526 605.984 741.56 602.878 742.387 600.185C743.145 597.562 744.662 591.969 745.627 587.758C746.593 583.616 747.627 578.783 748.04 577.057C748.385 575.4 749.35 569.187 750.178 563.249C751.487 553.791 751.556 550.546 751.212 534.944C750.867 520.722 750.453 515.406 749.074 507.328C748.109 501.874 746.937 495.315 746.386 492.83C745.834 490.414 745.007 486.685 744.524 484.545C744.042 482.474 743.283 479.851 742.801 478.677C742.318 477.572 741.56 475.225 741.215 473.499C740.801 471.842 740.043 469.495 739.423 468.321C738.871 467.217 738.388 465.698 738.388 465.076C738.388 464.386 738.044 463.696 737.699 463.488C737.285 463.35 736.665 461.97 736.251 460.589C735.838 459.139 734.872 456.723 734.183 455.204C733.494 453.685 731.425 449.336 729.633 445.538C727.771 441.741 726.117 438.496 725.91 438.289C725.703 438.151 724.186 435.666 722.532 432.766C720.877 429.936 717.775 425.103 715.638 422.065C713.569 419.028 709.846 413.919 707.365 410.743C704.883 407.498 700.264 402.044 697.023 398.661C693.852 395.209 688.061 389.479 684.269 385.82C680.408 382.23 674.066 376.776 670.067 373.807C666.137 370.769 662.759 368.008 662.69 367.732C662.621 367.456 662.208 367.179 661.863 367.179C661.449 367.179 658.898 365.73 656.141 363.935C653.383 362.209 650.97 360.552 650.832 360.345C650.625 360.138 649.04 359.24 647.385 358.343C645.661 357.445 640.56 354.891 636.01 352.612C631.459 350.334 626.771 348.056 625.668 347.572C624.496 347.089 622.773 346.33 621.877 345.985C620.911 345.57 619.05 344.811 617.74 344.259C616.361 343.706 613.81 342.809 611.949 342.257C610.087 341.773 608.433 341.083 608.295 340.807C608.157 340.531 607.33 340.254 606.502 340.254C605.675 340.254 603.745 339.84 602.228 339.288C600.711 338.805 595.127 337.355 589.818 336.112C584.51 334.938 575.203 333.351 569.136 332.66C560.932 331.694 553.969 331.348 542.248 331.417C533.148 331.486 523.427 331.901 519.498 332.453C515.706 332.936 509.294 334.041 505.365 334.8ZM419.463 328.518C420.497 328.518 422.083 329.346 423.324 330.589C424.427 331.763 425.392 332.936 425.392 333.212C425.392 333.489 424.771 334.11 424.013 334.593C423.255 335.076 422.634 335.215 422.634 334.938C422.634 334.662 422.014 333.696 421.255 332.867C420.152 331.625 419.532 331.417 418.498 331.97C417.739 332.384 417.119 333.074 417.119 333.558C417.119 334.041 418.773 337.217 420.842 340.6C422.91 344.052 424.978 347.227 425.461 347.711C426.012 348.194 426.909 348.401 427.598 348.194C428.287 347.987 428.839 347.227 428.839 346.33C428.839 345.432 428.356 344.052 427.805 343.223C426.84 341.773 426.84 341.566 428.15 340.945C428.908 340.6 429.597 340.254 429.666 340.254C429.735 340.254 430.425 341.428 431.114 342.809C431.803 344.259 432.286 346.192 432.148 347.089C432.01 347.987 431.114 349.367 430.218 350.127C429.253 350.817 427.529 351.439 426.426 351.439C425.254 351.37 423.737 350.817 423.048 350.127C422.427 349.437 420.152 346.123 418.153 342.671C416.085 339.288 414.292 335.629 414.016 334.593C413.741 333.074 414.085 332.246 415.671 330.589C416.843 329.346 418.36 328.518 419.463 328.518ZM670.343 329.346C671.17 329.83 673.169 330.934 674.755 331.97C677.306 333.489 677.513 333.834 676.823 335.007C675.996 336.25 675.858 336.25 670.136 332.66L668.274 335.974C666.827 338.597 666.689 339.357 667.447 339.771C667.93 340.047 668.895 340.6 669.584 341.014C670.55 341.497 670.618 341.98 669.446 344.397L664.621 341.635L662.897 344.742C661.932 346.468 661.173 348.056 661.173 348.194C661.173 348.401 662.208 349.16 663.586 349.92C664.896 350.679 665.999 351.784 665.999 352.336C665.999 352.957 665.655 353.579 665.31 353.717C664.896 353.924 662.69 352.888 660.415 351.508C656.623 349.091 656.347 348.815 657.244 347.503C657.726 346.744 660.553 342.187 663.517 337.355C668.55 329.139 668.964 328.656 670.343 329.346ZM398.436 343.499C399.401 344.466 399.263 344.742 394.368 348.884L398.849 354.753L401.055 353.027C403.261 351.37 403.33 351.37 404.02 352.681C404.571 353.855 404.296 354.338 400.573 357.169L405.399 363.037L407.812 361.311C409.122 360.414 410.5 359.585 410.914 359.585C411.259 359.585 411.741 360.068 411.948 360.621C412.155 361.311 410.983 362.692 408.846 364.418C406.915 365.937 405.123 367.179 404.847 367.249C404.571 367.249 401.262 363.244 397.47 358.412C393.747 353.579 390.645 349.229 390.576 348.815C390.576 348.401 392.093 346.813 393.954 345.225C397.057 342.74 397.47 342.533 398.436 343.499ZM708.054 357.928C708.95 358.135 710.26 358.826 710.95 359.516C711.639 360.138 712.328 361.311 712.535 362.209C712.673 363.037 712.397 364.694 711.846 365.799C710.881 367.732 710.674 367.801 709.433 366.834C708.261 366.006 708.192 365.592 708.812 364.625C709.226 363.935 709.433 362.83 709.157 362.209C708.881 361.518 708.123 360.966 707.365 360.966C706.606 360.966 705.503 361.656 704.952 362.554C704.193 363.589 703.986 365.592 704.055 369.044C704.193 373.186 703.986 374.36 702.814 375.947C701.987 377.052 700.608 378.226 699.712 378.709C698.402 379.33 697.575 379.33 695.989 378.709C694.886 378.226 693.576 377.259 693.094 376.5C692.542 375.74 692.128 374.498 692.197 373.738C692.197 372.979 692.68 371.529 693.369 370.493C694.472 368.767 694.679 368.698 695.989 369.596C697.092 370.355 697.161 370.7 696.472 371.46C695.989 371.943 695.575 372.841 695.575 373.393C695.575 374.014 696.058 374.912 696.679 375.464C697.644 376.431 697.919 376.362 699.298 374.912C700.539 373.6 700.746 372.703 700.608 369.044C700.539 366.696 700.746 363.797 701.16 362.554C701.504 361.242 702.745 359.723 704.055 358.895C705.503 357.997 706.882 357.652 708.054 357.928ZM376.995 360.276C377.27 360.276 377.822 360.621 378.304 361.104C378.994 361.863 378.925 362.278 377.822 363.382C376.443 364.763 376.443 364.832 383.682 372.357C390.3 379.33 390.852 380.09 389.887 381.194C388.922 382.299 388.301 381.816 374.03 367.179L372.651 368.56C371.272 369.941 371.203 369.941 370.031 368.767C368.859 367.594 368.928 367.387 372.651 363.935C374.788 361.933 376.719 360.276 376.995 360.276ZM726.806 377.604C727.496 377.535 728.943 378.502 730.115 379.606C731.425 380.918 732.115 382.368 732.115 383.611C732.115 384.991 731.15 386.441 728.53 388.996C726.53 390.86 723.29 393.759 721.291 395.347C719.291 396.935 717.223 398.247 716.672 398.247C716.051 398.247 714.741 397.833 713.707 397.349C712.673 396.797 711.432 395.485 710.95 394.381C710.329 393 710.26 391.826 710.674 390.653C711.018 389.755 713.845 386.786 716.947 384.094C720.05 381.47 723.29 378.916 724.117 378.433C724.945 377.95 726.117 377.604 726.806 377.604ZM714.603 392.586C714.603 393.207 715.017 393.828 715.638 393.966C716.189 394.105 719.36 391.826 722.67 388.996C726.599 385.613 728.599 383.404 728.392 382.713C728.185 382.161 727.496 381.678 726.806 381.747C726.117 381.747 723.152 383.887 720.119 386.51C717.085 389.203 714.603 391.895 714.603 392.586ZM354.864 402.182C360.104 405.772 364.447 409.086 364.585 409.5C364.654 409.983 364.378 410.743 363.896 411.226C363.137 411.917 361.62 411.571 356.105 409.638C352.313 408.327 348.935 407.429 348.659 407.705C348.384 408.05 350.797 410.052 354.037 412.262C357.208 414.402 359.897 416.473 359.897 416.749C359.897 417.025 359.552 417.578 359.001 418.061C358.311 418.682 356.036 417.371 348.866 412.331C343.696 408.741 339.421 405.427 339.352 405.013C339.283 404.529 339.697 403.563 340.248 402.942C341.214 401.768 341.489 401.837 346.246 403.494C349.349 404.529 351.486 404.944 351.969 404.598C352.382 404.184 351.072 402.942 348.315 401.077C345.971 399.559 343.971 398.04 343.902 397.695C343.765 397.418 344.109 396.797 344.523 396.383C345.143 395.831 347.832 397.418 354.864 402.182ZM744.731 398.937C745.007 398.937 746.386 400.663 747.833 402.803C749.971 406.048 750.246 406.739 749.419 407.291C748.799 407.636 748.109 407.912 747.833 407.912C747.558 407.912 746.73 406.877 745.972 405.496C744.593 403.149 744.524 403.149 742.663 404.184C741.629 404.737 740.043 405.772 737.561 407.567L739.009 409.5C740.319 411.295 740.388 411.433 739.216 412.331C738.113 413.228 737.906 413.159 736.803 411.295C736.113 410.191 735.424 409.293 735.286 409.293C735.079 409.293 733.149 410.536 730.943 412.055C727.84 414.195 726.806 414.609 726.117 413.919C725.634 413.504 725.221 412.814 725.289 412.4C725.289 412.055 729.564 408.879 734.734 405.358C739.974 401.837 744.455 398.937 744.731 398.937ZM330.528 420.823C331.079 421.03 331.562 421.582 331.562 421.996C331.562 422.41 330.941 423.86 329.011 427.588L331.493 429.107C332.872 430.005 334.388 430.695 334.871 430.695C335.354 430.695 336.181 429.798 336.801 428.624C337.629 426.898 338.042 426.691 339.214 427.243C340.455 427.934 340.524 428.072 339.559 430.005C338.939 431.178 338.525 432.283 338.525 432.421C338.525 432.628 339.904 433.595 341.627 434.492C343.282 435.459 344.799 436.218 344.868 436.287C344.937 436.287 345.695 435.045 346.453 433.457C347.212 431.938 348.039 430.695 348.315 430.695C348.59 430.695 349.28 430.902 349.9 431.04C350.728 431.316 350.521 432.214 348.659 435.873C347.418 438.358 346.177 440.36 345.902 440.36C345.626 440.36 340.938 438.013 335.56 435.114C330.183 432.214 325.495 429.659 325.219 429.452C325.012 429.176 325.84 427.036 327.149 424.689C328.804 421.72 329.838 420.546 330.528 420.823ZM758.588 420.339C758.933 420.339 760.312 422.618 761.622 425.379C763.828 430.074 763.897 430.419 762.725 431.247C761.622 432.007 761.346 431.869 760.588 430.35C760.105 429.452 759.485 428.624 759.209 428.624C758.933 428.693 754.659 430.833 749.764 433.457C740.87 438.151 740.732 438.22 739.974 436.701C739.285 435.321 739.698 434.975 746.868 431.178C751.143 428.9 755.279 426.691 756.107 426.139C757.485 425.31 757.554 425.034 756.796 423.446C756.107 421.927 756.107 421.513 757.003 421.03C757.554 420.684 758.313 420.408 758.588 420.339ZM770.584 445.884C771.067 445.884 771.618 446.505 771.825 447.264C772.101 448.438 771.067 449.197 765.414 452.028C761.139 454.237 759.071 455.618 759.76 455.825C760.312 456.101 763.552 455.48 766.999 454.513C772.79 452.926 773.204 452.926 774.031 454.03C774.514 454.652 774.928 455.411 774.859 455.549C774.859 455.756 771.963 457.275 768.516 458.863C764.242 460.865 762.38 462.039 762.863 462.522C763.277 463.005 765.414 462.729 769.205 461.832C772.308 461.003 775.341 460.382 775.962 460.382C776.513 460.382 776.996 460.934 776.996 461.624C776.996 462.591 774.997 463.281 766.103 465.491C760.105 467.009 754.935 468.321 754.59 468.459C754.176 468.597 753.487 467.7 753.004 466.457C752.59 465.214 752.246 464.179 752.315 464.11C752.453 464.041 754.107 463.212 756.107 462.177C758.106 461.21 759.76 460.106 759.76 459.691C759.76 459.346 759.485 459.001 759.209 459.001C758.933 459.001 757.003 459.484 754.935 460.037C752.797 460.589 751.005 461.072 750.936 461.072C750.867 461.072 750.453 460.106 750.04 458.863C749.695 457.62 749.557 456.516 749.902 456.377C750.177 456.308 754.797 453.892 760.105 451.061C765.414 448.231 770.102 445.953 770.584 445.884ZM332.113 470.53C332.872 470.738 333.561 471.29 333.561 471.704C333.63 472.118 333.423 472.878 333.147 473.361C332.803 473.913 332.113 474.051 331.148 473.706C330.045 473.292 329.838 472.809 330.252 471.704C330.597 470.599 331.148 470.254 332.113 470.53ZM781.615 481.922C782.925 481.853 783.201 482.198 783.545 484.407C783.752 485.788 783.821 487.031 783.683 487.1C783.614 487.169 778.857 489.102 773.204 491.449C767.482 493.796 762.518 495.868 762.173 496.075C761.76 496.213 761.277 495.591 761.139 494.625C760.795 493.244 761.139 492.761 762.656 492.209C763.69 491.794 764.586 491.242 764.586 490.966C764.586 490.69 764.38 489.447 764.242 488.204C763.897 486.064 763.759 485.995 761.622 486.34C759.76 486.754 759.278 486.547 758.864 485.305C758.588 484.545 758.451 483.855 758.519 483.786C758.588 483.717 763.483 483.303 769.412 482.888C775.272 482.405 780.788 481.991 781.615 481.922ZM767.137 487.721C767.206 488.273 767.551 488.826 767.827 488.964C768.102 489.102 770.24 488.549 772.515 487.652L776.651 486.064C771.274 486.064 769.137 486.271 768.378 486.409C767.62 486.616 767.068 487.169 767.137 487.721ZM309.018 484.545C310.603 484.545 312.189 484.752 312.396 485.029C312.672 485.374 312.741 486.133 312.603 486.824C312.396 487.721 311.706 487.997 310.121 487.859C308.742 487.721 307.708 488.066 307.225 488.895C306.605 489.792 306.674 490.275 307.501 491.035C308.053 491.587 311.844 492.761 315.843 493.658C322.393 495.108 323.358 495.177 324.323 494.211C324.943 493.658 325.426 492.83 325.426 492.347C325.426 491.863 324.874 491.173 324.185 490.897C323.496 490.552 321.841 490.068 320.393 489.861C318.808 489.585 317.842 489.654 317.842 490.068C317.842 490.483 317.084 490.759 316.257 490.828C314.878 490.828 314.74 490.621 315.223 488.55C315.567 487.307 315.981 486.133 316.119 485.926C316.326 485.788 318.394 486.064 320.738 486.616C323.082 487.238 325.702 488.204 326.598 488.895C327.701 489.723 328.184 490.828 328.184 492.485C328.184 494.142 327.632 495.453 326.46 496.627C325.495 497.594 324.254 498.353 323.702 498.353C323.082 498.353 319.014 497.594 314.533 496.627C309.11 495.476 305.961 494.441 305.088 493.52C304.123 492.554 303.778 491.449 303.916 489.999C304.054 488.826 304.605 487.169 305.088 486.271C305.915 484.89 306.674 484.545 309.018 484.545ZM785.614 508.087C787.613 508.018 787.682 508.087 788.165 512.023C788.578 514.922 788.44 516.372 787.751 517.339C787.268 518.098 785.752 518.996 784.511 519.272C783.201 519.548 781.339 519.824 780.443 519.824C779.478 519.824 778.237 519.341 777.685 518.719C776.72 517.753 776.513 517.822 775.41 519.065C774.721 519.824 773.066 520.652 771.618 520.86C770.171 521.067 768.171 521.343 767.137 521.55C765.62 521.757 765.138 521.55 764.862 520.307C764.655 519.41 764.586 518.65 764.655 518.581C764.793 518.443 766.586 518.167 768.723 517.822C770.791 517.546 772.859 517.062 773.342 516.786C773.825 516.51 774.238 515.544 774.238 512.851L763.69 513.887L763.966 512.161C764.173 510.504 764.449 510.435 773.894 509.33C779.202 508.709 784.442 508.156 785.614 508.087ZM777.685 513.887C777.685 514.508 778.03 515.129 778.513 515.406C778.995 515.682 780.443 515.82 781.822 515.751C783.132 515.613 784.442 515.198 784.649 514.715C784.924 514.301 784.993 513.542 784.855 513.058C784.648 512.575 783.821 512.23 782.994 512.299C782.167 512.368 780.581 512.506 779.547 512.644C778.444 512.782 777.685 513.265 777.685 513.887ZM302.882 512.23C304.054 512.23 309.431 512.644 314.74 513.196C320.048 513.749 324.392 514.232 324.392 514.232C324.392 514.232 324.254 515.06 324.185 515.958C324.116 516.924 323.909 517.684 323.84 517.684C323.771 517.684 320.117 518.305 315.774 519.065C311.362 519.824 307.708 520.445 307.639 520.445C307.57 520.445 307.639 520.791 307.846 521.136C307.984 521.55 311.569 522.033 315.774 522.171C323.289 522.517 323.358 522.517 323.358 524.243C323.358 525.83 323.082 525.968 321.083 525.692C319.842 525.485 314.395 524.933 309.018 524.45C303.502 523.966 299.159 523.276 299.228 522.862C299.228 522.517 299.435 521.481 299.711 520.653C300.124 519.41 301.02 518.996 304.743 518.374C307.156 517.96 310.052 517.546 311.086 517.339C312.12 517.132 313.016 516.786 313.016 516.51C313.016 516.234 310.121 515.751 306.605 515.406C303.089 515.129 300.124 514.784 300.055 514.715C299.917 514.646 300.055 514.025 300.262 513.403C300.538 512.575 301.365 512.161 302.882 512.23ZM765.965 537.015H790.095V541.847C790.095 546.266 789.957 546.68 788.716 546.68C787.475 546.68 787.337 546.266 787.337 540.467H779.754V542.883C779.754 545.023 779.478 545.299 778.03 545.299C776.513 545.299 776.307 545.023 776.307 540.467H768.723V543.573C768.723 546.266 768.516 546.68 767.344 546.68C766.034 546.68 765.965 546.266 765.965 541.847V537.015ZM323.358 541.157V544.609H311.293C301.158 544.609 299.159 544.471 298.883 543.573C298.676 543.021 298.539 542.262 298.539 541.847C298.539 541.433 303.089 541.157 323.358 541.157ZM726.668 660.594C727.013 660.594 731.839 663.701 737.354 667.498C745.765 673.366 747.489 674.264 748.454 673.573C749.005 673.09 750.109 671.709 750.867 670.467C752.108 668.326 752.246 668.257 755.624 670.259L752.315 675.092C750.522 677.716 748.799 679.925 748.523 679.925C748.247 679.925 742.939 676.473 736.803 672.261C730.667 668.05 725.358 664.391 725.014 664.184C724.738 663.908 724.807 663.01 725.221 662.182C725.634 661.284 726.255 660.594 726.668 660.594ZM362.448 668.879C363.275 668.879 365.068 669.983 366.446 671.295C368.239 673.159 368.859 674.333 368.859 676.128C368.859 678.061 368.239 679.096 363.689 683.584L362.448 681.927C361.276 680.339 361.345 680.27 362.999 678.889C363.896 678.13 364.723 676.887 364.723 676.128C364.723 675.368 364.24 674.333 363.62 673.711C362.793 672.883 362.241 672.883 361.069 673.504C360.173 673.987 356.588 676.749 353.003 679.787C348.108 683.791 346.453 685.586 346.453 686.829C346.453 687.726 346.936 688.762 347.625 689.176C348.522 689.797 349.349 689.521 351.762 687.795C353.692 686.345 354.726 685.103 354.726 684.067C354.726 683.239 355.209 682.203 355.829 681.72C356.726 681.098 357.277 681.375 358.725 683.032C359.69 684.205 360.517 685.31 360.586 685.448C360.586 685.655 358.725 687.312 356.45 689.107C354.175 690.902 351.486 692.697 350.59 693.042C349.625 693.456 348.039 693.525 347.005 693.249C345.971 692.973 344.454 691.869 343.558 690.833C342.661 689.728 341.972 688.002 341.972 686.829C341.972 685.724 342.179 684.274 342.455 683.584C342.73 682.963 345.902 680.063 349.556 677.163C353.141 674.264 357.139 671.226 358.518 670.397C359.828 669.569 361.62 668.879 362.448 668.879ZM715.5 676.611C716.12 677.094 721.153 681.375 726.599 686.069C732.115 690.764 736.734 694.837 736.803 695.044C736.941 695.32 736.389 696.011 735.631 696.701C734.252 697.875 733.976 697.737 726.186 691.178C721.773 687.45 716.741 683.17 715.086 681.651C712.122 678.958 712.122 678.889 713.225 677.301C714.259 675.99 714.603 675.852 715.5 676.611ZM380.648 688.278L383.13 690.143C384.44 691.178 386.164 692.904 386.853 693.94C387.543 694.975 388.094 696.839 388.094 698.082C388.094 699.808 387.405 700.982 385.061 703.26C382.993 705.331 381.545 706.16 380.097 706.16C378.442 706.16 378.098 706.436 378.098 708.093C378.098 709.266 376.995 711.268 375.271 713.409C373.754 715.342 371.962 717.344 371.272 717.896C370.238 718.863 369.962 718.794 367.136 715.894L370.721 712.097C372.72 709.957 374.306 707.678 374.306 707.057C374.306 706.367 373.754 705.262 373.134 704.572C371.962 703.398 371.755 703.536 363.344 712.028L360.242 708.99L380.648 688.278ZM376.374 701.672C376.926 702.224 377.684 702.708 378.098 702.708C378.442 702.708 379.752 701.672 380.993 700.429C382.234 699.187 383.337 697.668 383.406 697.046C383.475 696.425 383.061 695.597 382.51 695.182C381.614 694.561 380.786 695.044 378.373 697.461C375.616 700.222 375.409 700.636 376.374 701.672ZM702.608 689.59C702.883 689.59 703.504 690.281 703.917 691.109C704.538 692.421 704.331 692.904 701.436 695.735L719.36 714.513L716.258 717.551L707.64 708.369C702.883 703.329 698.609 699.187 698.126 699.187C697.644 699.187 696.679 699.808 694.541 702.086L693.3 700.636C692.128 699.256 692.197 699.118 697.092 694.423C699.85 691.73 702.332 689.59 702.608 689.59ZM401.262 706.919L402.986 707.955C403.951 708.576 404.64 709.197 404.64 709.335C404.64 709.473 401.331 714.03 397.332 719.415C393.334 724.8 390.162 729.702 390.3 730.185C390.369 730.737 390.99 731.497 391.541 731.842C392.093 732.256 393.127 732.394 393.747 732.118C394.437 731.842 398.16 727.492 402.021 722.315C405.95 717.206 409.259 712.994 409.466 712.994C409.673 712.994 410.294 713.547 410.983 714.237C412.086 715.411 411.81 715.894 405.605 724.11C402.02 728.804 398.16 733.568 397.057 734.603C395.816 735.708 394.161 736.537 393.058 736.537C392.024 736.537 390.438 735.984 389.473 735.363C388.508 734.673 387.336 733.706 386.922 733.085C386.44 732.463 386.026 731.013 386.026 729.771C386.026 727.976 387.543 725.49 393.679 717.206L401.262 706.919ZM681.994 708.231C682.408 708.231 686.268 713.34 690.681 719.622C695.024 725.836 698.678 731.221 698.816 731.497C698.954 731.773 698.264 732.601 695.507 734.465L687.785 728.183C683.511 724.731 679.926 722.246 679.857 722.66C679.719 723.074 682.132 726.733 690.612 738.263L689.095 739.367C687.578 740.541 687.509 740.403 681.442 732.118C678.064 727.492 674.135 722.107 669.998 716.515L672.066 715.135C673.238 714.375 674.341 713.754 674.686 713.754C674.962 713.754 677.513 715.687 680.339 717.965C683.166 720.243 685.786 721.9 686.061 721.555C686.337 721.279 684.821 718.517 682.614 715.549C678.754 710.302 678.685 710.026 679.995 709.128C680.753 708.645 681.649 708.231 681.994 708.231ZM424.771 723.35C424.84 723.35 426.426 724.248 428.287 725.283C430.149 726.319 432.286 727.976 432.975 728.942C433.665 729.909 434.285 731.221 434.216 731.842C434.216 732.532 433.389 734.672 432.355 736.675C431.39 738.677 429.804 741.024 428.977 741.853C428.081 742.75 426.564 743.44 425.461 743.44C424.427 743.44 422.634 742.957 421.462 742.336C420.359 741.783 419.325 741.3 419.256 741.3C419.118 741.369 417.808 743.509 416.291 746.202C413.534 750.966 413.534 751.035 411.81 749.999C410.845 749.447 410.087 748.825 410.087 748.687C410.087 748.48 412.913 743.44 416.36 737.434C419.876 731.428 423.117 725.836 423.599 724.938C424.151 724.11 424.702 723.419 424.771 723.35ZM421.876 737.572C425.185 739.229 425.392 739.091 427.115 736.329C428.081 734.742 429.046 733.016 429.184 732.532C429.253 732.049 428.977 731.221 428.563 730.599C428.081 730.047 427.322 729.564 426.909 729.564C426.564 729.633 425.254 731.428 424.013 733.568L421.876 737.572ZM655.106 726.25C655.451 726.181 659.45 731.359 664.069 737.641C668.688 743.924 672.549 749.24 672.687 749.516C672.756 749.792 671.997 750.413 670.963 750.897C669.86 751.38 668.826 751.518 668.688 751.242C668.481 750.897 667.792 749.93 665.93 747.583L660.415 750.344L661.449 753.106C662.414 755.798 662.414 755.936 660.898 756.627C660.07 757.041 659.174 757.11 658.967 756.834C658.692 756.489 656.485 750.275 653.935 742.957C651.453 735.639 649.315 729.495 649.246 729.357C649.178 729.149 650.35 728.39 651.797 727.631C653.314 726.871 654.831 726.25 655.106 726.25ZM657.244 739.643C657.726 741.162 658.554 743.302 658.967 744.338C659.657 746.064 659.864 746.133 661.38 745.373L663.104 744.476C659.932 740.196 658.347 738.193 657.657 737.227C656.899 736.329 656.279 735.846 656.279 736.191C656.279 736.606 656.692 738.124 657.244 739.643ZM451.659 737.296C451.934 737.296 453.038 737.572 454.072 737.986C455.106 738.401 456.691 739.367 457.588 740.196C458.553 741.231 459.104 742.543 459.104 743.993C459.104 745.235 457.519 749.999 455.588 754.694C453.382 759.872 451.245 763.876 450.073 765.05C448.97 766.085 447.453 766.914 446.695 766.914C445.937 766.914 444.213 766.499 442.903 765.878C441.524 765.326 440.145 764.221 439.801 763.462C439.387 762.702 439.111 761.183 439.111 760.01C439.111 758.905 440.697 754.141 442.627 749.516C444.558 744.821 446.626 740.472 447.178 739.712C447.729 739.022 448.832 738.193 449.659 737.917C450.487 737.572 451.383 737.296 451.659 737.296ZM443.593 761.045C443.73 761.667 444.696 762.081 445.661 762.081C447.177 762.081 447.729 761.252 450.831 753.658C452.762 748.964 454.21 744.545 454.141 743.786C454.003 743.026 453.313 742.336 452.486 742.198C451.245 742.06 450.487 743.233 447.109 751.035C444.971 756.005 443.386 760.493 443.593 761.045ZM631.253 737.917C631.735 737.917 634.562 743.786 637.664 751.242C642.835 763.669 643.111 764.566 642.008 765.395C641.318 765.878 640.422 766.292 640.077 766.223C639.664 766.223 636.837 760.286 633.735 752.968C628.702 741.024 628.219 739.574 629.253 738.815C629.874 738.332 630.77 737.917 631.253 737.917ZM609.881 746.271C610.777 746.271 612.087 746.547 612.845 746.892C613.603 747.307 614.638 748.48 615.12 749.516C615.672 750.551 617.188 755.177 618.567 759.872C619.946 764.497 621.118 768.916 621.118 769.675C621.118 770.435 620.429 771.815 619.532 772.713C618.705 773.61 616.085 775.06 613.672 775.82C611.328 776.648 609.26 777.062 609.122 776.786C608.984 776.51 607.123 770.435 604.986 763.324C602.849 756.213 601.056 749.93 600.987 749.447C600.918 748.825 602.228 748.066 604.572 747.376C606.64 746.823 609.053 746.34 609.881 746.271ZM606.64 751.587C606.64 751.863 607.881 756.42 609.467 761.736C612.294 771.125 612.362 771.401 614.086 771.056C614.982 770.918 615.947 770.435 616.085 770.02C616.292 769.675 615.258 765.464 613.879 760.7C612.431 756.005 610.915 751.794 610.501 751.38C610.018 751.035 608.984 750.759 608.157 750.897C607.33 750.966 606.64 751.311 606.64 751.587ZM493.507 751.035C493.713 751.035 496.402 751.518 499.436 752.139C502.469 752.761 505.02 753.313 505.158 753.382C505.296 753.451 505.227 754.141 504.951 755.039C504.606 756.489 504.33 756.558 496.678 755.729L495.782 759.803C495.092 762.978 495.092 763.945 495.782 764.359C496.264 764.635 497.298 764.842 498.057 764.842C498.815 764.842 499.849 765.119 500.332 765.395C500.883 765.671 501.09 766.499 500.883 767.466C500.47 768.847 500.056 768.985 493.989 768.64L493.438 771.401C493.093 772.92 492.748 774.784 492.541 775.543C492.266 776.786 492.748 777.062 496.333 777.822C500.125 778.581 500.401 778.788 500.056 780.238C499.78 781.067 499.436 781.964 499.298 782.102C499.16 782.309 496.471 781.895 493.369 781.205C490.266 780.583 487.646 779.962 487.578 779.824C487.509 779.755 488.75 773.265 490.335 765.395C491.852 757.524 493.3 751.035 493.507 751.035ZM586.302 752.415L588.164 763.669C589.267 769.813 590.094 775.751 590.094 776.786C590.094 777.822 589.818 779.202 589.543 779.824C589.267 780.445 588.164 781.343 587.13 781.895C586.096 782.378 584.165 782.792 582.855 782.792C581.201 782.792 579.891 782.24 578.719 781.067C577.754 780.169 576.995 779.133 576.995 778.857C576.995 778.581 576.099 773.058 574.996 766.568C573.893 760.148 573.203 754.625 573.479 754.349C573.755 754.072 574.651 753.796 575.479 753.796C576.49 753.796 577.11 754.326 577.34 755.384C577.478 756.213 578.443 761.598 579.408 767.259C580.373 772.989 581.545 778.029 581.959 778.512C582.442 778.995 583.131 779.41 583.545 779.41C583.889 779.41 584.717 778.857 585.337 778.167C586.44 777.062 586.371 776.165 584.51 765.188C583.407 758.767 582.511 753.244 582.511 752.968C582.511 752.692 583.338 752.415 586.302 752.415ZM525.082 755.177C525.978 755.177 527.426 755.522 528.391 755.867C529.356 756.282 530.528 757.662 531.149 758.974C531.7 760.355 532.183 761.874 532.183 762.426C532.183 763.116 531.494 763.462 530.115 763.462C528.322 763.462 527.978 763.185 527.84 761.598C527.702 760.079 527.288 759.665 525.771 759.526C524.393 759.388 523.703 759.734 523.152 760.907C522.738 761.736 522.531 763.116 522.807 764.014C523.014 764.842 524.393 766.845 525.84 768.501C527.357 770.089 529.081 772.506 529.77 773.817C530.597 775.543 530.873 777.131 530.597 779.341C530.322 781.619 529.701 782.931 528.253 784.104C526.599 785.485 525.84 785.692 523.221 785.347C521.497 785.14 519.567 784.38 518.877 783.69C518.257 783 517.498 781.274 517.36 779.893C517.154 778.443 517.154 777.062 517.292 776.786C517.498 776.51 518.395 776.303 519.36 776.441C520.808 776.579 521.152 776.993 521.29 778.857C521.428 780.79 521.704 781.067 523.496 781.067C524.599 781.067 525.771 780.652 526.185 780.031C526.53 779.479 526.668 778.167 526.392 777.131C526.185 776.096 524.53 773.61 522.807 771.608C521.083 769.606 519.36 766.706 518.946 765.188C518.257 762.909 518.326 762.012 519.36 759.734C519.98 758.215 521.221 756.558 522.049 756.074C522.876 755.591 524.255 755.246 525.082 755.177ZM553.693 755.936C559.691 755.867 559.76 755.867 559.76 757.593C559.76 759.112 559.415 759.319 554.934 759.319L555.968 785.554H551.487L550.797 760.01H548.04C545.627 760.01 545.213 759.803 545.075 758.353C545.006 757.179 545.351 756.558 546.316 756.351C547.074 756.213 550.384 756.005 553.693 755.936Z" fill="white"/>
<path opacity="0.1" d="M311.362 540.812C315.912 540.812 317.911 540.881 315.843 541.019C313.775 541.157 310.052 541.157 307.57 541.019C305.088 540.881 306.812 540.812 311.362 540.812Z" fill="black"/>
<path opacity="0.9" d="M544.386 330.934C549.694 330.934 551.694 331.072 548.867 331.141C546.04 331.279 541.697 331.279 539.215 331.141C536.733 331.003 539.077 330.934 544.386 330.934Z" fill="#050505"/>
<path d="M429.115 393.483H664.689L666.068 395.416C667.516 397.28 667.516 397.902 667.447 550.891L664.069 554.343H428.218L426.839 552.824C425.461 551.237 425.461 550.477 425.323 396.314L427.253 394.933L429.115 393.483Z" fill="black"/>
<path d="M422.014 555.034H665.034L706.192 637.535L705.089 640.296C704.4 641.815 703.504 643.265 703.09 643.541C702.607 643.817 631.321 644.094 544.523 644.094C405.743 644.094 386.577 643.956 384.785 643.058C383.475 642.437 382.579 641.332 382.303 640.089C382.096 639.054 381.751 637.811 381.614 637.328C381.476 636.914 382.648 633.807 384.302 630.424C385.888 627.11 395.057 608.815 404.64 589.691L422.014 555.034Z" fill="#C5C6C5"/>
<path opacity="0.9" d="M425.254 435.252C425.392 456.17 425.392 490.621 425.254 511.885C425.185 533.148 425.116 516.096 425.116 473.913C425.116 431.731 425.185 414.333 425.254 435.252ZM667.93 435.597C668.068 456.308 668.068 490.483 667.93 511.539C667.861 532.596 667.792 515.682 667.792 473.913C667.792 432.145 667.861 414.885 667.93 435.597Z" fill="#050505"/>
<path opacity="0.1" d="M668.619 436.287C668.757 456.999 668.757 491.035 668.619 511.885C668.55 532.803 668.481 515.82 668.481 474.258C668.481 432.697 668.55 415.576 668.619 436.287Z" fill="black"/>
<path opacity="0.5" d="M546.454 393.138C610.915 393.138 637.457 393.207 605.399 393.276C573.341 393.414 520.601 393.414 488.198 393.276C455.795 393.207 481.993 393.138 546.454 393.138ZM424.565 436.632C424.703 457.551 424.703 491.38 424.565 511.885C424.496 532.389 424.427 515.336 424.427 473.913C424.427 432.49 424.496 415.714 424.565 436.632Z" fill="#010101"/>
<path d="M546.109 554.689C610.777 554.689 637.112 554.758 604.71 554.827C572.307 554.965 519.36 554.965 487.164 554.827C454.899 554.758 481.441 554.689 546.109 554.689Z" fill="#898F8A"/>
<path opacity="0.9" d="M425.185 553.653C426.84 553.653 428.356 553.929 428.563 554.343C428.77 554.758 427.46 555.103 421.876 555.379L401.607 595.767C385.543 627.939 381.476 636.499 381.889 637.88C382.165 639.123 382.096 639.468 381.476 639.123C380.993 638.778 380.648 637.88 380.648 637.052C380.648 636.154 389.68 617.445 400.711 595.421C411.81 573.398 421.117 554.965 421.531 554.481C421.876 554.067 423.53 553.653 425.185 553.653ZM664.345 554.412C665.517 554.343 669.033 561.04 686.337 595.559C702.056 627.179 706.813 637.328 706.675 638.847C706.537 639.951 705.986 640.987 705.503 641.125C704.883 641.263 704.814 640.918 705.434 639.399C706.124 637.673 704.538 634.221 685.855 596.319C671.653 567.53 665.103 554.965 664.207 554.758C663.104 554.55 663.173 554.481 664.345 554.412Z" fill="#C5C5C5"/>
<path opacity="0.7" d="M383.406 642.023C384.165 642.782 385.474 643.541 386.371 643.749C387.198 643.956 459.036 644.025 545.971 643.956C632.838 643.818 703.986 643.956 703.986 644.301C703.986 644.577 703.297 645.267 702.47 645.82C701.091 646.717 682.614 646.855 386.164 646.855L384.096 644.784C382.993 643.679 382.027 642.23 382.027 641.677C382.027 640.849 382.303 640.918 383.406 642.023Z" fill="#675C56"/>
<path d="M437.595 560.557C442.49 560.557 442.696 560.626 442.49 562.145C442.352 563.525 442.007 563.664 436.836 563.871C433.803 563.94 431.045 563.802 430.769 563.525C430.425 563.18 430.7 562.421 431.321 561.8C432.217 560.833 433.596 560.557 437.595 560.557ZM450.969 560.557C454.21 560.557 456.485 560.833 456.485 561.247C456.485 561.661 456.347 562.421 456.14 562.973C455.864 563.802 454.554 564.009 449.935 564.009C445.178 564.009 444.075 563.802 444.075 562.973C444.075 562.421 444.351 562.076 444.765 562.283C445.109 562.49 445.454 562.145 445.454 561.592C445.454 560.764 446.557 560.557 450.969 560.557ZM464.551 560.557C467.309 560.557 469.584 560.695 469.584 560.902C469.584 561.109 469.446 561.73 469.239 562.283C468.963 563.111 467.722 563.318 463.724 563.318C460.69 563.318 458.346 562.973 458.001 562.559C457.726 562.145 458.001 561.523 458.553 561.178C459.105 560.833 461.862 560.557 464.551 560.557ZM477.926 560.557C482.89 560.557 483.372 560.695 483.372 561.938C483.372 563.18 482.89 563.318 477.512 563.318C471.997 563.318 471.652 563.249 472.066 561.938C472.41 560.695 473.1 560.557 477.926 560.557ZM491.438 560.626C494.403 560.557 496.471 560.833 496.471 561.247C496.471 561.661 496.333 562.421 496.126 562.973C495.851 563.802 494.541 564.009 490.266 564.009C485.371 564.009 484.751 563.871 484.613 562.697C484.544 561.938 484.958 561.178 485.44 561.04C485.992 560.833 488.75 560.626 491.438 560.626ZM504.537 560.557C509.846 560.557 509.915 560.626 509.708 562.283C509.57 563.802 509.225 564.009 506.95 564.009C505.571 564.009 503.227 563.733 501.78 563.456C499.987 563.111 499.229 562.628 499.229 561.8C499.229 560.695 499.918 560.557 504.537 560.557ZM518.326 560.557C523.152 560.557 523.358 560.626 523.152 562.145C523.014 563.525 522.669 563.664 517.636 563.871C512.948 564.009 512.328 563.871 512.19 562.766C512.121 562.076 512.328 561.247 512.672 561.04C513.017 560.764 515.499 560.557 518.326 560.557ZM531.287 560.557C535.768 560.557 536.457 560.695 536.457 561.8C536.457 562.421 536.182 563.249 535.837 563.664C535.423 564.078 533.148 564.285 530.666 564.216C526.323 564.009 526.116 563.94 526.116 562.283C526.116 560.626 526.254 560.557 531.287 560.557ZM549.556 560.557V562.49C549.556 564.354 549.556 564.354 546.316 563.802C544.455 563.525 542.18 563.318 541.077 563.318C539.698 563.318 539.215 562.973 539.215 561.938C539.215 560.695 539.698 560.557 549.556 560.557ZM557.829 560.557C563.138 560.557 563.345 560.626 563.138 562.145C563 563.525 562.586 563.664 558.519 563.871C554.865 564.009 553.9 563.871 553.141 562.835C552.659 562.145 552.314 561.385 552.314 561.109C552.314 560.764 554.796 560.557 557.829 560.557ZM571.204 560.557C576.306 560.557 576.444 560.626 576.444 562.283C576.444 564.009 576.375 564.009 571.411 563.871C566.861 563.664 566.447 563.525 566.24 562.145C566.034 560.626 566.171 560.557 571.204 560.557ZM584.303 560.557C587.337 560.557 589.543 560.833 589.543 561.247C589.543 561.661 589.75 562.421 589.956 562.973C590.301 563.94 589.612 564.009 584.993 563.871C579.96 563.664 579.546 563.525 579.339 562.145C579.133 560.626 579.27 560.557 584.303 560.557ZM597.471 560.557C601.47 560.557 602.711 560.764 602.986 561.592C603.193 562.145 603.331 562.904 603.331 563.318C603.331 563.733 601.332 564.009 598.643 564.009C595.816 564.009 593.679 563.664 593.128 563.18C592.645 562.697 592.3 561.869 592.3 561.454C592.3 560.833 593.817 560.557 597.471 560.557ZM610.363 560.557C614.293 560.626 615.603 560.902 616.223 561.8C616.706 562.421 617.12 563.18 617.12 563.525C617.12 563.802 614.776 564.009 611.949 564.009C607.468 564.009 606.709 563.802 606.089 562.628C605.675 561.869 605.399 561.109 605.399 560.902C605.399 560.695 607.675 560.557 610.363 560.557ZM623.669 560.557C628.15 560.557 628.909 560.764 629.529 561.938C629.874 562.697 630.081 563.595 629.874 564.009C629.667 564.423 627.461 564.699 624.841 564.699C622.014 564.699 619.877 564.354 619.326 563.871C618.843 563.387 618.498 562.421 618.498 561.8C618.498 560.695 619.188 560.557 623.669 560.557ZM636.906 560.695C641.594 560.902 642.214 561.04 642.628 562.49C643.18 564.009 643.111 564.009 637.733 564.009C633.528 564.009 632.218 563.802 631.942 562.973C631.735 562.421 631.597 561.592 631.597 561.247C631.666 560.764 633.597 560.557 636.906 560.695ZM649.936 560.557C654.348 560.557 655.107 560.764 655.727 561.938C656.072 562.697 656.416 563.456 656.416 563.664C656.416 563.871 654.072 564.009 651.246 564.009C647.868 564.009 645.937 563.733 645.593 563.111C645.317 562.697 645.041 561.869 644.972 561.385C644.903 560.764 646.282 560.557 649.936 560.557ZM445.454 564.699H451.314C454.554 564.699 457.312 564.906 457.45 565.182C457.588 565.528 457.312 566.908 455.795 570.913L449.453 570.706C446.006 570.636 443.041 570.291 442.903 569.877C442.834 569.463 443.317 568.151 444.075 566.908L445.454 564.699ZM442.696 565.39L440.766 569.877L434.492 570.084C431.045 570.153 428.219 570.084 428.15 569.877C428.15 569.67 428.632 568.565 429.253 567.461C430.287 565.459 430.356 565.39 442.696 565.39ZM459.863 565.39H472.341L470.48 570.567L464.206 570.775C460.69 570.844 457.933 570.775 458.001 570.567C458.07 570.36 458.553 569.118 459.036 567.806L459.863 565.39ZM475.237 565.39H481.373C485.785 565.39 487.44 565.666 487.44 566.287C487.44 566.77 487.302 567.806 487.095 568.703C486.819 570.153 486.474 570.222 473.651 570.222L474.479 567.806L475.237 565.39ZM489.577 565.39H496.126C501.435 565.39 502.607 565.597 502.607 566.425C502.607 566.977 502.331 568.22 501.917 569.187C501.228 570.844 500.952 570.913 495.368 570.913C492.128 570.913 489.37 570.636 489.163 570.222C488.956 569.877 489.025 568.634 489.232 567.461L489.577 565.39ZM504.744 565.39H511.225C516.533 565.39 517.705 565.597 517.705 566.425C517.705 566.977 517.429 568.22 517.016 569.187C516.395 570.844 516.12 570.913 510.466 570.913C507.295 570.913 504.468 570.636 504.262 570.222C504.124 569.877 504.124 568.634 504.33 567.461L504.744 565.39ZM519.911 565.39H525.909C529.219 565.39 532.045 565.528 532.252 565.735C532.39 565.873 532.39 567.046 531.838 570.567L525.978 570.775C522.807 570.844 519.911 570.706 519.636 570.429C519.291 570.153 519.222 568.91 519.498 567.668L519.911 565.39ZM534.251 565.39H546.661V570.913H534.251V568.151V565.39ZM561.828 565.39V570.913H556.313C550.935 570.913 550.797 570.844 550.108 568.98C549.694 567.944 549.556 566.701 549.763 566.218C549.97 565.666 551.9 565.39 561.828 565.39ZM576.651 565.735L576.995 570.913L565.689 570.567L565.068 568.358C564.655 567.115 564.655 565.942 564.999 565.735C565.344 565.528 568.102 565.39 576.651 565.735ZM585.682 565.39C590.094 565.39 590.922 565.528 591.473 566.77C591.887 567.53 592.163 568.772 592.163 569.532C592.163 570.775 591.818 570.913 586.578 570.706C580.925 570.567 580.925 570.567 580.373 568.496C580.098 567.323 580.029 566.149 580.167 565.873C580.373 565.597 582.855 565.39 585.682 565.39ZM600.436 565.39C605.675 565.39 606.02 565.459 606.64 567.116C607.054 568.013 607.33 569.256 607.33 569.877C607.33 570.706 606.296 570.913 601.814 570.913C596.988 570.913 596.23 570.706 595.61 569.532C595.265 568.772 594.92 567.53 594.92 566.77C594.92 565.459 595.403 565.39 600.436 565.39ZM609.398 565.39H621.118L621.877 567.599C622.221 568.841 622.566 570.084 622.566 570.36C622.497 570.636 620.084 570.913 617.188 570.913C613.603 570.959 611.558 570.682 611.053 570.084C610.639 569.601 610.087 568.289 609.812 567.254L609.398 565.39ZM642.559 565.39L643.593 567.806C644.145 569.118 644.627 570.36 644.627 570.567C644.627 570.775 640.491 570.913 626.358 570.913L625.255 569.049C624.634 568.013 624.289 566.77 624.427 566.287C624.634 565.666 627.116 565.39 642.559 565.39ZM646.006 566.08H651.659C657.244 566.08 657.382 566.08 658.416 567.944C658.967 569.049 659.519 570.153 659.588 570.429C659.726 570.706 657.106 570.844 647.799 570.567L646.902 568.358L646.006 566.08ZM455.52 571.603C459.449 571.603 461.38 571.879 461.655 572.431C461.862 572.915 461.517 574.503 459.863 578.507H453.658C450.211 578.507 447.315 578.162 447.109 577.817C446.902 577.402 447.246 576.091 447.729 574.848C448.281 573.605 448.97 572.362 449.246 572.086C449.522 571.81 452.348 571.603 455.52 571.603ZM480.545 571.534L486.612 571.741C491.99 571.879 492.679 572.086 492.817 573.329C492.955 574.088 492.748 575.538 492.335 576.574C491.576 578.438 491.507 578.507 485.371 578.507C481.097 578.507 479.029 578.231 478.822 577.609C478.546 577.126 478.891 575.607 479.511 574.157L480.545 571.534ZM501.78 571.603C504.675 571.603 507.433 571.81 507.847 572.086C508.329 572.431 508.467 573.605 507.709 578.162H494.679L494.816 575.883C494.954 574.641 495.368 573.122 495.782 572.57C496.333 571.879 497.919 571.603 501.78 571.603ZM523.634 571.948L523.772 574.848C523.91 577.402 523.772 577.817 522.393 578.162C521.566 578.369 518.533 578.438 510.535 578.162L510.328 575.745C510.191 574.365 510.466 572.915 510.949 572.431C511.5 571.81 513.5 571.603 523.634 571.948ZM538.801 571.948V578.162L526.047 578.507L525.909 575.4C525.771 573.329 526.047 572.293 526.737 572.017C527.288 571.81 530.253 571.741 538.801 571.948ZM548.384 571.948C551.418 572.017 554.176 572.155 554.451 572.224C554.727 572.224 554.865 573.605 554.658 578.162H541.559L541.352 575.4C541.214 573.674 541.49 572.431 541.973 572.224C542.455 571.948 545.351 571.879 548.384 571.948ZM564.034 571.81C566.93 571.879 569.481 572.086 569.687 572.293C569.894 572.431 570.17 573.881 570.515 578.162H557.416L557.209 575.4C557.071 573.674 557.347 572.431 557.898 572.155C558.381 571.948 561.139 571.81 564.034 571.81ZM579.133 572.086C581.959 572.293 584.51 572.777 584.786 573.26C585.062 573.674 585.268 574.848 585.337 577.817H579.133C574.169 577.817 572.859 577.54 572.583 576.781C572.376 576.16 572.169 574.986 572.1 574.019C571.963 573.122 572.376 572.224 572.928 572.017C573.479 571.81 576.237 571.879 579.133 572.086ZM426.771 572.293H446.764L445.661 574.848C445.109 576.298 444.627 577.54 444.627 577.609C444.627 577.678 440.008 577.817 424.013 577.817L425.392 575.055L426.771 572.293ZM464.62 572.293H471.169C477.374 572.293 477.719 572.362 477.374 573.674C477.236 574.434 476.892 575.676 476.685 576.436C476.409 577.678 475.788 577.817 469.446 577.817C465.654 577.817 462.621 577.609 462.69 577.402C462.758 577.195 463.241 575.952 463.724 574.641L464.62 572.293ZM594.024 572.293C598.023 572.293 599.884 572.57 600.16 573.191C600.367 573.674 600.573 574.986 600.849 578.162L596.368 578.369C593.886 578.507 591.266 578.438 590.508 578.231C589.75 578.024 588.647 576.781 588.095 575.469C587.543 574.088 587.406 572.846 587.681 572.639C588.026 572.501 590.853 572.293 594.024 572.293ZM603.193 572.293H609.053C614.569 572.293 614.982 572.431 615.603 573.881C615.879 574.71 616.292 576.021 616.43 576.781C616.637 578.093 616.292 578.162 610.984 578.369C606.158 578.507 605.193 578.369 604.71 577.333C604.365 576.643 603.883 575.262 603.676 574.226L603.193 572.293ZM630.081 572.293L631.115 574.71C631.735 576.021 632.011 577.402 631.804 577.817C631.666 578.162 629.253 578.507 626.496 578.507C623.738 578.507 621.118 578.231 620.705 577.955C620.291 577.678 619.601 576.367 619.188 575.055C618.705 573.743 618.36 572.57 618.36 572.431C618.36 572.362 621.049 572.293 630.081 572.293ZM639.388 572.293C645.248 572.293 645.248 572.293 646.282 574.365C646.902 575.469 647.316 576.919 647.316 577.471C647.316 578.3 646.351 578.438 635.941 578.162L634.769 575.745C634.148 574.434 633.597 573.053 633.597 572.777C633.528 572.501 636.216 572.293 639.388 572.293ZM660.415 572.293L663.173 577.817L651.108 577.886L650.074 575.745C649.522 574.572 648.833 573.605 648.557 573.605C648.281 573.674 648.212 573.329 648.419 572.984C648.626 572.57 651.384 572.293 660.415 572.293ZM456.76 579.197C460.966 579.197 462.552 579.404 462.552 580.026C462.621 580.509 462.276 581.89 461.173 585.411H448.074L448.901 583.132C449.315 581.89 450.004 580.509 450.349 580.026C450.763 579.473 452.969 579.197 456.76 579.197ZM466.688 579.128L478.753 579.542L478.546 581.959C478.477 583.271 478.064 584.651 477.788 585.066C477.443 585.411 474.479 585.687 470.894 585.549C467.033 585.48 464.689 585.135 464.758 584.651C464.827 584.306 465.309 582.856 465.792 581.545L466.688 579.128ZM488.474 579.197C494.954 579.197 494.954 579.197 494.954 580.923C494.954 581.89 494.679 583.34 494.334 584.168C493.782 585.687 493.438 585.756 480.477 585.411L480.89 582.787C481.097 581.407 481.442 579.957 481.649 579.681C481.786 579.404 484.889 579.197 488.474 579.197ZM504.055 579.197C507.571 579.128 510.604 579.266 510.811 579.473C511.018 579.612 511.018 581.13 510.466 585.756H496.678L496.885 583.34C496.954 582.028 497.16 580.509 497.367 580.026C497.574 579.473 499.573 579.197 504.055 579.197ZM520.118 579.197C523.703 579.197 526.806 579.404 526.943 579.681C527.081 579.957 527.012 581.476 526.323 585.756H519.773C513.293 585.756 513.224 585.756 513.017 584.03C512.879 583.063 512.948 581.614 513.224 580.716C513.569 579.266 513.913 579.197 520.118 579.197ZM542.869 579.542V585.756H535.975C529.15 585.756 529.081 585.756 528.874 584.03C528.736 583.063 528.805 581.614 529.081 580.716C529.494 579.197 529.701 579.128 542.869 579.542ZM545.282 579.128L558.726 579.542V585.756H545.627L545.42 582.442L545.282 579.128ZM567.826 579.197C573.962 579.197 574.307 579.266 574.72 580.716C574.927 581.614 574.996 583.063 574.858 584.03C574.651 585.687 574.582 585.756 561.552 585.756L561.001 582.787C560.656 581.199 560.656 579.681 560.932 579.542C561.208 579.335 564.31 579.197 567.826 579.197ZM583.545 579.681C589.75 579.888 590.163 579.957 590.508 581.407C590.646 582.304 590.922 583.616 590.991 584.375C591.197 585.687 590.784 585.756 577.409 585.756L576.857 582.787C576.513 581.199 576.444 579.75 576.582 579.681C576.788 579.612 579.891 579.612 583.545 579.681ZM605.675 579.75L606.502 582.235C606.985 583.616 607.261 584.997 607.054 585.411C606.847 585.756 603.952 586.101 600.642 586.101C596.575 586.101 594.369 585.825 593.886 585.273C593.472 584.789 592.921 583.409 592.645 582.304C592.438 581.13 592.369 580.026 592.507 579.888C592.645 579.681 595.679 579.542 605.675 579.75ZM608.019 579.542L621.532 579.819L622.359 582.235C622.842 583.616 623.118 584.997 622.911 585.411C622.704 585.756 619.808 586.101 616.361 586.101C611.122 586.101 610.019 585.894 609.536 584.858C609.191 584.237 608.709 582.718 608.502 581.614L608.019 579.542ZM657.864 579.197C660.622 579.197 663.173 579.404 663.586 579.681C664 579.957 664.896 581.199 665.517 582.442C666.137 583.685 666.62 584.997 666.62 585.411C666.62 585.825 664.276 586.032 654.555 585.756L653.383 583.132C652.694 581.752 652.349 580.233 652.556 579.888C652.763 579.473 655.176 579.197 657.864 579.197ZM434.837 579.888C441.386 579.888 446.695 579.957 446.764 580.026C446.764 580.164 446.281 581.407 444.627 585.411H420.497L420.704 583.823C420.842 582.994 421.393 581.752 421.945 581.13C422.772 580.095 424.496 579.888 434.837 579.888ZM648.35 579.819L649.591 582.442C650.281 583.892 650.763 585.135 650.625 585.204C650.556 585.273 644.834 585.342 625.599 585.48L624.772 583.547C624.358 582.442 623.945 581.199 623.945 580.716C623.876 580.095 626.771 579.888 648.35 579.819ZM513.913 587.137L513.707 590.243C513.569 591.9 513.086 593.557 512.672 593.833C512.19 594.11 509.019 594.317 499.091 594.386L499.16 592.315C499.229 591.21 499.505 589.484 499.849 588.518C500.539 586.722 500.539 586.722 513.913 587.137ZM529.77 587.137V594.041H515.982L515.844 591.762C515.706 590.52 515.982 588.932 516.395 588.103C517.085 586.861 517.705 586.722 529.77 587.137ZM546.316 587.137V594.041H532.528L532.321 590.934C532.252 588.932 532.459 587.62 533.01 587.275C533.493 586.999 536.733 586.861 546.316 587.137ZM555.485 586.792C558.795 586.792 561.897 586.999 562.38 587.275C562.931 587.62 563.207 588.932 562.862 594.041H549.074L548.867 591.279C548.798 589.76 548.867 588.103 549.074 587.62C549.281 587.068 551.28 586.792 555.485 586.792ZM572.169 586.792C577.685 586.792 578.443 586.93 579.064 588.172C579.477 588.932 579.753 590.451 579.753 593.695L565.62 593.35L565.413 590.934C565.344 589.553 565.413 588.103 565.62 587.62C565.827 587.068 567.826 586.792 572.169 586.792ZM588.44 586.792C592.025 586.792 595.058 586.999 595.265 587.275C595.403 587.551 595.816 589.139 596.644 593.764L582.235 593.35L581.752 590.589C581.477 589.07 581.408 587.551 581.614 587.275C581.752 586.999 584.855 586.792 588.44 586.792ZM610.777 586.792L611.811 589.208C612.431 590.52 612.845 592.038 612.845 592.66C612.845 593.488 611.673 593.626 598.781 593.35L598.229 590.934C597.885 589.553 597.816 588.103 597.954 587.62C598.229 587.068 600.229 586.792 610.777 586.792ZM419.325 587.482H447.384L446.971 589.001C446.695 589.898 446.281 591.279 445.937 592.108C445.316 593.626 445.109 593.695 431.39 593.833C423.668 593.972 417.188 593.972 416.912 593.833C416.636 593.764 417.05 592.246 417.877 590.589L419.325 587.482ZM457.795 587.482C461.173 587.482 463.93 587.689 463.862 587.965C463.862 588.241 463.517 589.691 462.207 593.695H448.763L449.522 591.417C449.935 590.174 450.625 588.794 450.969 588.31C451.429 587.758 453.704 587.482 457.795 587.482ZM467.515 587.482H473.996C477.512 587.482 480.477 587.689 480.477 587.965C480.477 588.241 480.132 589.691 479.098 593.695H472.548C468.894 593.695 465.999 593.419 465.999 593.143C465.999 592.867 466.343 591.486 466.757 590.036L467.515 587.482ZM497.712 587.482L497.298 589.76C497.023 591.003 496.747 592.384 496.609 592.867C496.402 593.488 494.334 593.695 482.545 593.695L482.889 591.831C483.165 590.796 483.441 589.346 483.648 588.725C483.924 587.689 484.889 587.482 497.712 587.482ZM613.604 587.482H635.596L636.63 590.105C637.182 591.486 637.664 592.936 637.664 593.212C637.664 593.488 632.631 593.626 615.258 593.35L614.431 590.451L613.604 587.482ZM639.25 587.413L651.728 587.827L652.969 590.243C653.59 591.555 654.141 592.867 654.141 593.143C654.141 593.419 651.453 593.695 648.143 593.695C644.834 593.626 641.801 593.419 641.387 593.143C641.042 592.867 640.353 591.486 639.939 590.036L639.25 587.413ZM667.999 587.482L669.378 590.243C670.136 591.762 670.756 593.143 670.756 593.35C670.756 593.488 667.999 593.695 664.552 593.695C658.554 593.695 658.278 593.626 657.175 591.762C656.485 590.727 655.865 589.346 655.796 588.656C655.589 587.551 656.279 587.482 667.999 587.482ZM582.304 595.076C587.75 595.076 588.095 595.145 588.715 596.802C589.129 597.7 589.405 599.426 589.405 602.67H583.2C577.685 602.67 576.926 602.463 576.306 601.29C575.961 600.53 575.548 599.011 575.479 597.907C575.41 596.871 575.616 595.767 575.961 595.49C576.306 595.283 579.133 595.076 582.304 595.076ZM598.643 595.007C602.366 595.007 604.503 595.306 605.055 595.905C605.468 596.388 606.089 598.114 606.985 602.67H600.78C596.575 602.67 594.369 602.394 593.817 601.842C593.404 601.29 592.852 599.84 592.576 598.528C592.3 597.147 592.369 595.836 592.576 595.559C592.852 595.283 595.61 595.007 598.643 595.007ZM615.465 595.214C621.049 595.352 621.532 595.49 622.29 597.147C622.773 598.045 623.186 599.633 623.324 600.599C623.531 602.256 623.462 602.325 618.36 602.532C615.534 602.601 612.569 602.532 611.811 602.394C610.915 602.118 610.156 601.013 609.605 599.08C609.191 597.423 608.984 595.836 609.191 595.559C609.398 595.214 612.225 595.076 615.465 595.214ZM631.735 595.076C634.838 595.076 637.664 595.283 638.078 595.559C638.492 595.836 639.319 597.354 640.973 601.635L635.182 602.118C632.011 602.394 628.909 602.394 628.357 602.118C627.737 601.842 626.84 600.392 626.289 598.873C625.806 597.354 625.53 595.836 625.737 595.559C626.013 595.283 628.702 595.076 631.735 595.076ZM648.488 595.076C651.453 595.076 654.21 595.283 654.624 595.559C655.107 595.836 655.934 597.354 656.554 598.873C657.175 600.392 657.657 601.704 657.657 601.773C657.657 601.842 654.693 601.98 644.558 601.98L643.524 599.357C642.904 597.907 642.628 596.388 642.766 595.905C643.042 595.352 644.834 595.076 648.488 595.076ZM665.103 595.076C667.999 595.076 670.756 595.283 671.17 595.559C671.584 595.836 672.618 597.423 674.893 601.98H661.449L660.277 599.011C659.588 597.424 659.243 595.836 659.45 595.559C659.657 595.283 662.208 595.076 665.103 595.076ZM415.74 595.767H422.29C425.874 595.767 428.77 595.974 428.77 596.25C428.77 596.526 428.081 598.045 425.599 602.325L418.911 602.463C412.913 602.601 412.224 602.532 412.431 601.428C412.5 600.737 413.327 599.219 414.154 597.976L415.74 595.767ZM439.111 595.767C444.144 595.767 445.316 595.974 445.316 596.802C445.316 597.354 444.834 598.942 443.248 602.67H430.149L430.563 600.806C430.769 599.702 431.39 598.183 431.941 597.354C432.838 595.905 433.458 595.767 439.111 595.767ZM456.002 595.767C461.38 595.767 462.552 595.974 462.552 596.802C462.552 597.354 462.069 598.942 460.483 602.67H453.934C447.522 602.67 447.384 602.67 447.729 601.152C447.867 600.254 448.35 598.735 448.694 597.7C449.453 595.767 449.453 595.767 456.002 595.767ZM479.787 595.767L479.373 598.045C479.167 599.218 478.684 600.806 478.339 601.497C477.788 602.532 476.823 602.67 471.376 602.532C465.447 602.325 464.965 602.256 465.102 600.944C465.171 600.185 465.585 598.735 465.93 597.7C466.688 595.767 466.688 595.767 479.787 595.767ZM572.169 595.767V597.838C572.169 599.011 572.238 600.461 572.376 601.152C572.514 602.256 569.963 602.325 482.2 602.325L482.407 600.254C482.545 599.149 482.958 597.631 483.303 597.009C483.924 595.836 486.75 595.767 572.169 595.767ZM510.88 606.813H574.927L575.272 608.746C575.41 609.781 576.03 614.338 576.651 618.895C577.271 623.451 577.892 628.008 578.374 630.976H508.743V629.457C508.743 628.56 509.087 624.487 509.432 620.275C509.777 616.133 510.259 611.369 510.535 609.781L510.88 606.813Z" fill="black"/>
<path d="M434.423 406.601H658.484V531.906H434.078L434.285 469.219L434.423 406.601ZM434.009 578.783C439.732 578.783 442.213 578.921 439.525 579.059C436.905 579.197 432.217 579.197 429.183 579.059C426.15 578.921 428.356 578.852 434.009 578.783ZM432.286 586.446C439.318 586.446 442.145 586.515 438.491 586.654C434.906 586.792 429.183 586.792 425.736 586.654C422.358 586.515 425.323 586.446 432.286 586.446ZM430.907 594.731C439.111 594.731 442.351 594.8 438.146 594.938C434.009 595.076 427.322 595.076 423.323 594.938C419.394 594.8 422.772 594.731 430.907 594.731Z" fill="#F4F4F4"/>
<path d="M434.216 437.323C434.354 454.444 434.354 482.681 434.216 500.148C434.148 517.615 434.079 503.669 434.079 469.081C434.079 434.492 434.148 420.201 434.216 437.323ZM546.454 531.906C607.881 531.906 633.183 531.975 602.642 532.044C572.1 532.182 521.842 532.182 490.956 532.044C460.07 531.975 485.027 531.906 546.454 531.906Z" fill="#C5C6C5"/>
<path d="M658.967 437.668C659.105 454.928 659.105 483.372 658.967 500.838C658.898 518.305 658.829 504.152 658.829 469.426C658.829 434.699 658.898 420.408 658.967 437.668ZM436.492 571.879C442.007 571.879 444.282 572.017 441.662 572.086C438.973 572.224 434.492 572.224 431.666 572.086C428.839 572.017 430.976 571.879 436.492 571.879ZM433.734 578.093C439.249 578.093 441.524 578.231 438.905 578.3C436.216 578.438 431.735 578.438 428.908 578.3C426.081 578.231 428.219 578.093 433.734 578.093ZM433.734 587.068C441.524 587.068 444.627 587.206 440.628 587.275C436.629 587.413 430.287 587.413 426.495 587.275C422.703 587.206 425.943 587.068 433.734 587.068ZM625.048 587.068C631.115 587.068 633.735 587.206 630.908 587.275C628.081 587.413 623.117 587.413 619.877 587.275C616.637 587.206 618.981 587.068 625.048 587.068ZM432.355 593.972C439.732 593.972 442.696 594.11 438.905 594.179C435.113 594.317 429.046 594.317 425.461 594.179C421.876 594.11 424.978 593.972 432.355 593.972ZM627.116 593.972C633.183 593.972 635.803 594.11 632.976 594.179C630.15 594.317 625.186 594.317 621.945 594.179C618.705 594.11 621.049 593.972 627.116 593.972ZM522.807 594.524C538.181 594.455 545.971 594.593 545.765 595.076C545.558 595.49 534.596 595.698 514.534 595.628C497.574 595.559 487.302 595.283 491.645 595.076C495.988 594.869 510.053 594.662 522.807 594.524ZM543.007 606.468C560.794 606.468 568.24 606.537 559.553 606.606C550.797 606.744 536.251 606.744 527.15 606.606C518.05 606.537 525.151 606.468 543.007 606.468Z" fill="#898F8A"/>
<path d="M546.454 406.255C608.64 406.255 634.217 406.324 603.331 406.393C572.445 406.532 521.566 406.532 490.266 406.393C458.967 406.324 484.268 406.255 546.454 406.255ZM435.113 579.473C441.731 579.473 444.351 579.612 440.973 579.681C437.594 579.819 432.148 579.819 428.908 579.681C425.668 579.612 428.494 579.473 435.113 579.473ZM636.078 579.473C642.904 579.473 645.524 579.612 641.939 579.681C638.354 579.819 632.769 579.819 629.529 579.681C626.289 579.612 629.253 579.473 636.078 579.473ZM432.7 585.687C439.18 585.687 441.938 585.825 438.904 585.894C435.871 586.032 430.562 586.032 427.184 585.894C423.806 585.825 426.288 585.687 432.7 585.687ZM638.836 585.687C645.661 585.687 648.281 585.825 644.696 585.894C641.111 586.032 635.527 586.032 632.287 585.894C629.046 585.825 632.011 585.687 638.836 585.687ZM558.174 595.352C565.344 595.352 568.446 595.49 565.068 595.56C561.69 595.698 555.761 595.698 551.969 595.56C548.177 595.49 551.004 595.352 558.174 595.352ZM543.351 631.322C562.517 631.322 570.446 631.391 560.932 631.46C551.418 631.598 535.768 631.598 526.116 631.46C516.464 631.391 524.186 631.322 543.351 631.322Z" fill="#494948"/>
<path opacity="0.9" d="M498.195 602.947C503.089 602.947 505.296 603.016 503.02 603.154C500.745 603.292 496.747 603.292 494.058 603.154C491.369 603.016 493.3 602.947 498.195 602.947Z" fill="#C5C5C5"/>
<path d="M521.98 448.3C529.77 448.3 532.872 448.438 528.874 448.507C524.875 448.645 518.533 448.645 514.741 448.507C510.949 448.438 514.189 448.3 521.98 448.3ZM518.326 462.522C518.464 466.526 518.464 473.361 518.326 477.71C518.257 482.06 518.119 478.815 518.119 470.461C518.119 462.108 518.257 458.518 518.326 462.522ZM563.69 455.618C563.896 455.618 564.034 464.179 564.034 493.589L556.106 493.313L563.345 492.899V474.258C563.345 463.972 563.483 455.618 563.69 455.618ZM598.85 493.175C604.158 493.175 606.158 493.313 603.331 493.382C600.505 493.52 596.161 493.52 593.679 493.382C591.197 493.244 593.541 493.175 598.85 493.175Z" fill="#C5C6C5"/>
<path d="M493.644 446.712L496.264 448.162C497.712 448.99 498.953 449.75 499.091 449.888C499.16 450.026 496.333 454.997 492.748 460.934C489.232 466.94 483.717 476.053 480.614 481.162C477.512 486.271 474.754 490.828 474.547 491.311C474.203 491.863 473.375 491.656 469.032 489.102L472.41 483.372C474.271 480.265 475.788 477.503 475.719 477.296C475.719 477.089 479.718 470.116 484.682 461.832L493.644 446.712ZM508.191 448.714H535.768V455.618H525.426V485.995H535.768V492.899H508.191V485.995L518.188 485.65L518.532 455.618H508.191V452.166V448.714ZM544.73 448.714H575.754V455.618H563.345V479.782L560.242 481.991C557.14 484.269 557.14 484.269 556.933 488.757C556.795 491.242 556.657 484.752 556.45 455.618H544.73V452.166V448.714ZM588.508 448.714H595.885C599.953 448.714 603.331 448.783 603.331 448.852C603.331 448.99 601.469 450.509 599.194 452.304C596.781 454.237 594.299 455.618 593.334 455.618C592.3 455.618 591.335 456.17 590.921 456.999C590.508 457.758 590.163 459.07 590.163 459.898C590.163 460.796 589.956 461.072 589.818 460.589C589.611 460.037 588.853 460.244 587.267 461.348C586.026 462.246 584.648 463.212 584.165 463.419C583.545 463.765 583.338 462.867 583.338 459.898C583.338 456.446 583.613 455.549 585.889 452.373L588.508 448.714ZM459.932 456.239C460.138 456.239 461.31 457.206 464.757 460.382L456.829 467.907L464.068 475.225L459.587 479.713L447.867 467.976L453.727 462.108C456.967 458.863 459.725 456.239 459.932 456.239Z" fill="#42D36B"/>
<path d="M605.262 448.783C606.296 448.714 607.743 449.888 609.881 452.304C612.707 455.687 612.914 456.239 612.983 463.903H606.778V461.279C606.778 459.346 606.296 458.241 604.917 456.861C603.469 455.48 602.159 454.928 596.161 454.582L599.953 451.683C602.021 450.095 604.365 448.783 605.193 448.783H605.262ZM632.976 457.137C633.597 457.62 636.63 460.451 639.801 463.488C642.904 466.595 645.455 469.357 645.455 469.771C645.455 470.116 642.559 473.361 632.7 483.233L627.461 478.056L635.941 469.771L627.185 461.141L629.529 458.725C631.459 456.792 632.08 456.515 632.976 457.137ZM590.163 461.21C590.784 461.901 596.161 465.214 612.707 474.811L612.914 480.196C613.121 485.512 613.052 485.719 607.881 492.83L589.612 492.899L586.509 489.24C583.683 485.926 583.476 485.374 583.407 477.71H589.956L589.75 480.334C589.543 482.405 589.887 483.233 591.473 484.821C593.266 486.547 593.886 486.685 598.574 486.685C603.055 486.754 603.952 486.478 605.33 485.167C606.502 483.993 606.847 482.957 606.709 481.162C606.502 478.815 606.158 478.539 595.127 472.187C588.853 468.528 583.752 465.214 583.752 464.8C583.752 464.386 584.924 463.074 586.371 462.039C588.853 460.105 589.06 460.036 590.163 461.21ZM563.207 479.782C563.345 479.782 563.414 482.75 563.414 492.899H557.209L556.864 484.2L559.967 481.991C561.69 480.817 563.138 479.851 563.207 479.782Z" fill="#14C947"/>
</g>
<defs>
<filter id="filter0_f_704_10" x="-359.315" y="417.104" width="1217.48" height="958.965" filterUnits="userSpaceOnUse" color-interpolation-filters="sRGB">
<feFlood flood-opacity="0" result="BackgroundImageFix"/>
<feBlend mode="normal" in="SourceGraphic" in2="BackgroundImageFix" result="shape"/>
<feGaussianBlur stdDeviation="67.5618" result="effect1_foregroundBlur_704_10"/>
</filter>
<filter id="filter1_f_704_10" x="435.541" y="367.036" width="939.91" height="759.769" filterUnits="userSpaceOnUse" color-interpolation-filters="sRGB">
<feFlood flood-opacity="0" result="BackgroundImageFix"/>
<feBlend mode="normal" in="SourceGraphic" in2="BackgroundImageFix" result="shape"/>
<feGaussianBlur stdDeviation="60.323" result="effect1_foregroundBlur_704_10"/>
</filter>
<filter id="filter2_f_704_10" x="490.053" y="203.361" width="653.377" height="883.074" filterUnits="userSpaceOnUse" color-interpolation-filters="sRGB">
<feFlood flood-opacity="0" result="BackgroundImageFix"/>
<feBlend mode="normal" in="SourceGraphic" in2="BackgroundImageFix" result="shape"/>
<feGaussianBlur stdDeviation="24.5" result="effect1_foregroundBlur_704_10"/>
</filter>
<filter id="filter3_f_704_10" x="-252.18" y="358.836" width="969.539" height="779.902" filterUnits="userSpaceOnUse" color-interpolation-filters="sRGB">
<feFlood flood-opacity="0" result="BackgroundImageFix"/>
<feBlend mode="normal" in="SourceGraphic" in2="BackgroundImageFix" result="shape"/>
<feGaussianBlur stdDeviation="67.5618" result="effect1_foregroundBlur_704_10"/>
</filter>
<filter id="filter4_f_704_10" x="125.943" y="537.069" width="909.292" height="719.655" filterUnits="userSpaceOnUse" color-interpolation-filters="sRGB">
<feFlood flood-opacity="0" result="BackgroundImageFix"/>
<feBlend mode="normal" in="SourceGraphic" in2="BackgroundImageFix" result="shape"/>
<feGaussianBlur stdDeviation="52.5" result="effect1_foregroundBlur_704_10"/>
</filter>
<filter id="filter5_f_704_10" x="-345.057" y="302.069" width="909.292" height="719.655" filterUnits="userSpaceOnUse" color-interpolation-filters="sRGB">
<feFlood flood-opacity="0" result="BackgroundImageFix"/>
<feBlend mode="normal" in="SourceGraphic" in2="BackgroundImageFix" result="shape"/>
<feGaussianBlur stdDeviation="52.5" result="effect1_foregroundBlur_704_10"/>
</filter>
<filter id="filter6_f_704_10" x="48.0005" y="614" width="243" height="329" filterUnits="userSpaceOnUse" color-interpolation-filters="sRGB">
<feFlood flood-opacity="0" result="BackgroundImageFix"/>
<feBlend mode="normal" in="SourceGraphic" in2="BackgroundImageFix" result="shape"/>
<feGaussianBlur stdDeviation="15" result="effect1_foregroundBlur_704_10"/>
</filter>
<filter id="filter7_f_704_10" x="48.0005" y="614" width="243" height="329" filterUnits="userSpaceOnUse" color-interpolation-filters="sRGB">
<feFlood flood-opacity="0" result="BackgroundImageFix"/>
<feBlend mode="normal" in="SourceGraphic" in2="BackgroundImageFix" result="shape"/>
<feGaussianBlur stdDeviation="15" result="effect1_foregroundBlur_704_10"/>
</filter>
<filter id="filter8_f_704_10" x="312" y="551" width="920" height="1288" filterUnits="userSpaceOnUse" color-interpolation-filters="sRGB">
<feFlood flood-opacity="0" result="BackgroundImageFix"/>
<feBlend mode="normal" in="SourceGraphic" in2="BackgroundImageFix" result="shape"/>
<feGaussianBlur stdDeviation="34.5" result="effect1_foregroundBlur_704_10"/>
</filter>
<filter id="filter9_f_704_10" x="-21.9995" y="720" width="144" height="184" filterUnits="userSpaceOnUse" color-interpolation-filters="sRGB">
<feFlood flood-opacity="0" result="BackgroundImageFix"/>
<feBlend mode="normal" in="SourceGraphic" in2="BackgroundImageFix" result="shape"/>
<feGaussianBlur stdDeviation="15" result="effect1_foregroundBlur_704_10"/>
</filter>
<filter id="filter10_f_704_10" x="128" y="572" width="301" height="414" filterUnits="userSpaceOnUse" color-interpolation-filters="sRGB">
<feFlood flood-opacity="0" result="BackgroundImageFix"/>
<feBlend mode="normal" in="SourceGraphic" in2="BackgroundImageFix" result="shape"/>
<feGaussianBlur stdDeviation="15" result="effect1_foregroundBlur_704_10"/>
</filter>
<filter id="filter11_f_704_10" x="285" y="513" width="301" height="414" filterUnits="userSpaceOnUse" color-interpolation-filters="sRGB">
<feFlood flood-opacity="0" result="BackgroundImageFix"/>
<feBlend mode="normal" in="SourceGraphic" in2="BackgroundImageFix" result="shape"/>
<feGaussianBlur stdDeviation="15" result="effect1_foregroundBlur_704_10"/>
</filter>
<radialGradient id="paint0_radial_704_10" cx="0" cy="0" r="1" gradientUnits="userSpaceOnUse" gradientTransform="translate(199.328 955.569) rotate(-154.057) scale(430.794 365.238)">
<stop stop-color="#03161F"/>
<stop offset="1" stop-color="#264F22" stop-opacity="0"/>
</radialGradient>
<radialGradient id="paint1_radial_704_10" cx="0" cy="0" r="1" gradientUnits="userSpaceOnUse" gradientTransform="translate(812.535 826.275) rotate(-144.112) scale(282.425 268.833)">
<stop stop-color="#5BDCC6"/>
<stop offset="1" stop-color="#F257A0" stop-opacity="0"/>
</radialGradient>
<linearGradient id="paint2_linear_704_10" x1="1050.3" y1="207.869" x2="915.627" y2="1082.08" gradientUnits="userSpaceOnUse">
<stop stop-color="#B2BD9C"/>
<stop offset="1" stop-color="#484EB7" stop-opacity="0"/>
<stop offset="1" stop-color="#81CA35" stop-opacity="0"/>
</linearGradient>
<radialGradient id="paint3_radial_704_10" cx="0" cy="0" r="1" gradientUnits="userSpaceOnUse" gradientTransform="translate(194.281 793.888) rotate(-154.057) scale(329.409 279.281)">
<stop stop-color="#B0E357"/>
<stop offset="1" stop-color="#1E4D11" stop-opacity="0"/>
</radialGradient>
<radialGradient id="paint4_radial_704_10" cx="0" cy="0" r="1" gradientUnits="userSpaceOnUse" gradientTransform="translate(542.281 941.997) rotate(-154.057) scale(329.409 279.281)">
<stop stop-color="#B0E357"/>
<stop offset="1" stop-color="#D7EC9C" stop-opacity="0"/>
</radialGradient>
<radialGradient id="paint5_radial_704_10" cx="0" cy="0" r="1" gradientUnits="userSpaceOnUse" gradientTransform="translate(71.2811 706.997) rotate(-154.057) scale(329.409 279.281)">
<stop stop-color="#FAD4D3"/>
<stop offset="1" stop-color="#F8D8CF" stop-opacity="0"/>
</radialGradient>
<linearGradient id="paint6_linear_704_10" x1="254.638" y1="654.323" x2="62.3365" y2="912.616" gradientUnits="userSpaceOnUse">
<stop stop-color="white"/>
<stop offset="1" stop-color="#B0E357"/>
</linearGradient>
<linearGradient id="paint7_linear_704_10" x1="254.638" y1="654.323" x2="62.3365" y2="912.616" gradientUnits="userSpaceOnUse">
<stop stop-color="white"/>
<stop offset="1" stop-color="#81CA35" stop-opacity="0"/>
</linearGradient>
<linearGradient id="paint8_linear_704_10" x1="1135.81" y1="664.131" x2="313.602" y2="1768.02" gradientUnits="userSpaceOnUse">
<stop stop-color="white"/>
<stop offset="1" stop-color="#81CA35" stop-opacity="0"/>
</linearGradient>
<linearGradient id="paint9_linear_704_10" x1="89.08" y1="754.758" x2="0.328337" y2="873.463" gradientUnits="userSpaceOnUse">
<stop stop-color="white"/>
<stop offset="1" stop-color="#81CA35" stop-opacity="0"/>
</linearGradient>
<linearGradient id="paint10_linear_704_10" x1="390.621" y1="615.584" x2="137.608" y2="955.671" gradientUnits="userSpaceOnUse">
<stop stop-color="white"/>
<stop offset="1" stop-color="#81CA35" stop-opacity="0"/>
</linearGradient>
<linearGradient id="paint11_linear_704_10" x1="547.621" y1="556.584" x2="294.608" y2="896.671" gradientUnits="userSpaceOnUse">
<stop stop-color="white"/>
<stop offset="1" stop-color="#81CA35" stop-opacity="0"/>
</linearGradient>
<clipPath id="clip0_704_10">
<rect width="1080" height="1080" fill="white"/>
</clipPath>
</defs>
</svg>
