<svg width="1080" height="1350" viewBox="0 0 1080 1350" fill="none" xmlns="http://www.w3.org/2000/svg">
<g clip-path="url(#clip0_704_163)">
<rect width="1080" height="1350" fill="#202020"/>
<g filter="url(#filter0_f_704_163)">
<circle cx="966.634" cy="712.382" r="355.634" fill="url(#paint0_linear_704_163)"/>
</g>
<g filter="url(#filter1_f_704_163)">
<path d="M1082.9 261L1392.86 797.871H772.937L1082.9 261Z" fill="url(#paint1_linear_704_163)"/>
</g>
<path d="M103.952 432L98.832 423.104H96.048V432H92.4V409.76H100.08C101.787 409.76 103.227 410.059 104.4 410.656C105.595 411.253 106.48 412.053 107.056 413.056C107.653 414.059 107.952 415.179 107.952 416.416C107.952 417.867 107.525 419.189 106.672 420.384C105.84 421.557 104.549 422.357 102.8 422.784L108.304 432H103.952ZM96.048 420.192H100.08C101.445 420.192 102.469 419.851 103.152 419.168C103.856 418.485 104.208 417.568 104.208 416.416C104.208 415.264 103.867 414.368 103.184 413.728C102.501 413.067 101.467 412.736 100.08 412.736H96.048V420.192ZM111.563 423.104C111.563 421.333 111.925 419.765 112.651 418.4C113.397 417.035 114.4 415.979 115.659 415.232C116.939 414.464 118.347 414.08 119.883 414.08C121.269 414.08 122.475 414.357 123.499 414.912C124.544 415.445 125.376 416.117 125.995 416.928V414.368H129.675V432H125.995V429.376C125.376 430.208 124.533 430.901 123.467 431.456C122.4 432.011 121.184 432.288 119.819 432.288C118.304 432.288 116.917 431.904 115.659 431.136C114.4 430.347 113.397 429.259 112.651 427.872C111.925 426.464 111.563 424.875 111.563 423.104ZM125.995 423.168C125.995 421.952 125.739 420.896 125.227 420C124.736 419.104 124.085 418.421 123.275 417.952C122.464 417.483 121.589 417.248 120.651 417.248C119.712 417.248 118.837 417.483 118.027 417.952C117.216 418.4 116.555 419.072 116.043 419.968C115.552 420.843 115.307 421.888 115.307 423.104C115.307 424.32 115.552 425.387 116.043 426.304C116.555 427.221 117.216 427.925 118.027 428.416C118.859 428.885 119.733 429.12 120.651 429.12C121.589 429.12 122.464 428.885 123.275 428.416C124.085 427.947 124.736 427.264 125.227 426.368C125.739 425.451 125.995 424.384 125.995 423.168ZM141.026 432.288C139.64 432.288 138.392 432.043 137.282 431.552C136.194 431.04 135.33 430.357 134.69 429.504C134.05 428.629 133.709 427.659 133.666 426.592H137.442C137.506 427.339 137.858 427.968 138.498 428.48C139.16 428.971 139.981 429.216 140.962 429.216C141.986 429.216 142.776 429.024 143.33 428.64C143.906 428.235 144.194 427.723 144.194 427.104C144.194 426.443 143.874 425.952 143.234 425.632C142.616 425.312 141.624 424.96 140.258 424.576C138.936 424.213 137.858 423.861 137.026 423.52C136.194 423.179 135.469 422.656 134.85 421.952C134.253 421.248 133.954 420.32 133.954 419.168C133.954 418.229 134.232 417.376 134.786 416.608C135.341 415.819 136.13 415.2 137.154 414.752C138.2 414.304 139.394 414.08 140.738 414.08C142.744 414.08 144.354 414.592 145.57 415.616C146.808 416.619 147.469 417.995 147.554 419.744H143.906C143.842 418.955 143.522 418.325 142.946 417.856C142.37 417.387 141.592 417.152 140.61 417.152C139.65 417.152 138.914 417.333 138.402 417.696C137.89 418.059 137.634 418.539 137.634 419.136C137.634 419.605 137.805 420 138.146 420.32C138.488 420.64 138.904 420.896 139.394 421.088C139.885 421.259 140.61 421.483 141.57 421.76C142.85 422.101 143.896 422.453 144.706 422.816C145.538 423.157 146.253 423.669 146.85 424.352C147.448 425.035 147.757 425.941 147.778 427.072C147.778 428.075 147.501 428.971 146.946 429.76C146.392 430.549 145.602 431.168 144.578 431.616C143.576 432.064 142.392 432.288 141.026 432.288ZM156.136 417.344V427.104C156.136 427.765 156.285 428.245 156.584 428.544C156.904 428.821 157.437 428.96 158.184 428.96H160.424V432H157.544C155.901 432 154.643 431.616 153.768 430.848C152.893 430.08 152.456 428.832 152.456 427.104V417.344H150.376V414.368H152.456V409.984H156.136V414.368H160.424V417.344H156.136ZM167.594 416.928C168.128 416.032 168.832 415.339 169.706 414.848C170.602 414.336 171.658 414.08 172.874 414.08V417.856H171.946C170.517 417.856 169.429 418.219 168.682 418.944C167.957 419.669 167.594 420.928 167.594 422.72V432H163.946V414.368H167.594V416.928ZM192.548 422.752C192.548 423.413 192.505 424.011 192.42 424.544H178.948C179.054 425.952 179.577 427.083 180.516 427.936C181.454 428.789 182.606 429.216 183.972 429.216C185.934 429.216 187.321 428.395 188.132 426.752H192.068C191.534 428.373 190.564 429.707 189.156 430.752C187.769 431.776 186.041 432.288 183.972 432.288C182.286 432.288 180.772 431.915 179.428 431.168C178.105 430.4 177.06 429.333 176.292 427.968C175.545 426.581 175.172 424.981 175.172 423.168C175.172 421.355 175.534 419.765 176.26 418.4C177.006 417.013 178.041 415.947 179.364 415.2C180.708 414.453 182.244 414.08 183.972 414.08C185.636 414.08 187.118 414.443 188.42 415.168C189.721 415.893 190.734 416.917 191.46 418.24C192.185 419.541 192.548 421.045 192.548 422.752ZM188.74 421.6C188.718 420.256 188.238 419.179 187.3 418.368C186.361 417.557 185.198 417.152 183.812 417.152C182.553 417.152 181.476 417.557 180.58 418.368C179.684 419.157 179.15 420.235 178.98 421.6H188.74ZM195.081 423.104C195.081 421.333 195.444 419.765 196.169 418.4C196.916 417.035 197.919 415.979 199.177 415.232C200.457 414.464 201.865 414.08 203.401 414.08C204.788 414.08 205.993 414.357 207.017 414.912C208.063 415.445 208.895 416.117 209.514 416.928V414.368H213.194V432H209.514V429.376C208.895 430.208 208.052 430.901 206.985 431.456C205.919 432.011 204.703 432.288 203.337 432.288C201.823 432.288 200.436 431.904 199.177 431.136C197.919 430.347 196.916 429.259 196.169 427.872C195.444 426.464 195.081 424.875 195.081 423.104ZM209.514 423.168C209.514 421.952 209.258 420.896 208.745 420C208.255 419.104 207.604 418.421 206.793 417.952C205.983 417.483 205.108 417.248 204.169 417.248C203.231 417.248 202.356 417.483 201.545 417.952C200.735 418.4 200.073 419.072 199.561 419.968C199.071 420.843 198.825 421.888 198.825 423.104C198.825 424.32 199.071 425.387 199.561 426.304C200.073 427.221 200.735 427.925 201.545 428.416C202.377 428.885 203.252 429.12 204.169 429.12C205.108 429.12 205.983 428.885 206.793 428.416C207.604 427.947 208.255 427.264 208.745 426.368C209.258 425.451 209.514 424.384 209.514 423.168ZM222.145 427.616L218.273 436.448H215.905L218.177 427.616H222.145ZM237.613 412.704V419.232H245.293V422.208H237.613V429.024H246.253V432H233.965V409.728H246.253V412.704H237.613ZM259.802 414.08C261.189 414.08 262.426 414.368 263.514 414.944C264.624 415.52 265.488 416.373 266.106 417.504C266.725 418.635 267.034 420 267.034 421.6V432H263.418V422.144C263.418 420.565 263.024 419.36 262.234 418.528C261.445 417.675 260.368 417.248 259.002 417.248C257.637 417.248 256.549 417.675 255.738 418.528C254.949 419.36 254.554 420.565 254.554 422.144V432H250.906V414.368H254.554V416.384C255.152 415.659 255.909 415.093 256.826 414.688C257.765 414.283 258.757 414.08 259.802 414.08ZM278.663 428.736L283.655 414.368H287.527L280.807 432H276.455L269.767 414.368H273.671L278.663 428.736ZM294.093 414.368V432H290.445V414.368H294.093ZM295.565 409.632L288.493 413.12V410.432L295.565 406.528V409.632ZM297.827 423.104C297.827 421.333 298.189 419.765 298.915 418.4C299.661 417.035 300.664 415.979 301.923 415.232C303.203 414.464 304.611 414.08 306.147 414.08C307.533 414.08 308.739 414.357 309.763 414.912C310.808 415.445 311.64 416.117 312.259 416.928V414.368H315.939V432H312.259V429.376C311.64 430.208 310.797 430.901 309.731 431.456C308.664 432.011 307.448 432.288 306.083 432.288C304.568 432.288 303.181 431.904 301.923 431.136C300.664 430.347 299.661 429.259 298.915 427.872C298.189 426.464 297.827 424.875 297.827 423.104ZM312.259 423.168C312.259 421.952 312.003 420.896 311.491 420C311 419.104 310.349 418.421 309.539 417.952C308.728 417.483 307.853 417.248 306.915 417.248C305.976 417.248 305.101 417.483 304.291 417.952C303.48 418.4 302.819 419.072 302.307 419.968C301.816 420.843 301.571 421.888 301.571 423.104C301.571 424.32 301.816 425.387 302.307 426.304C302.819 427.221 303.48 427.925 304.291 428.416C305.123 428.885 305.997 429.12 306.915 429.12C307.853 429.12 308.728 428.885 309.539 428.416C310.349 427.947 311 427.264 311.491 426.368C312.003 425.451 312.259 424.384 312.259 423.168ZM345.842 409.76L338.482 423.936V432H334.834V423.936L327.442 409.76H331.506L336.658 420.672L341.81 409.76H345.842ZM361.018 412.704V419.232H368.698V422.208H361.018V429.024H369.658V432H357.37V409.728H369.658V412.704H361.018ZM383.207 414.08C384.594 414.08 385.831 414.368 386.919 414.944C388.029 415.52 388.893 416.373 389.511 417.504C390.13 418.635 390.439 420 390.439 421.6V432H386.823V422.144C386.823 420.565 386.429 419.36 385.639 418.528C384.85 417.675 383.773 417.248 382.407 417.248C381.042 417.248 379.954 417.675 379.143 418.528C378.354 419.36 377.959 420.565 377.959 422.144V432H374.311V414.368H377.959V416.384C378.557 415.659 379.314 415.093 380.231 414.688C381.17 414.283 382.162 414.08 383.207 414.08ZM399.509 417.344V427.104C399.509 427.765 399.658 428.245 399.957 428.544C400.277 428.821 400.81 428.96 401.557 428.96H403.797V432H400.917C399.274 432 398.015 431.616 397.141 430.848C396.266 430.08 395.829 428.832 395.829 427.104V417.344H393.749V414.368H395.829V409.984H399.509V414.368H403.797V417.344H399.509ZM410.967 416.928C411.5 416.032 412.204 415.339 413.079 414.848C413.975 414.336 415.031 414.08 416.247 414.08V417.856H415.319C413.889 417.856 412.801 418.219 412.055 418.944C411.329 419.669 410.967 420.928 410.967 422.72V432H407.319V414.368H410.967V416.928ZM435.92 422.752C435.92 423.413 435.877 424.011 435.792 424.544H422.32C422.427 425.952 422.949 427.083 423.888 427.936C424.827 428.789 425.979 429.216 427.344 429.216C429.307 429.216 430.693 428.395 431.504 426.752H435.44C434.907 428.373 433.936 429.707 432.528 430.752C431.141 431.776 429.413 432.288 427.344 432.288C425.659 432.288 424.144 431.915 422.8 431.168C421.477 430.4 420.432 429.333 419.664 427.968C418.917 426.581 418.544 424.981 418.544 423.168C418.544 421.355 418.907 419.765 419.632 418.4C420.379 417.013 421.413 415.947 422.736 415.2C424.08 414.453 425.616 414.08 427.344 414.08C429.008 414.08 430.491 414.443 431.792 415.168C433.093 415.893 434.107 416.917 434.832 418.24C435.557 419.541 435.92 421.045 435.92 422.752ZM432.112 421.6C432.091 420.256 431.611 419.179 430.672 418.368C429.733 417.557 428.571 417.152 427.184 417.152C425.925 417.152 424.848 417.557 423.952 418.368C423.056 419.157 422.523 420.235 422.352 421.6H432.112ZM446.774 414.08C448.139 414.08 449.345 414.357 450.39 414.912C451.457 415.445 452.289 416.117 452.886 416.928V414.368H456.566V432.288C456.566 433.909 456.225 435.349 455.542 436.608C454.859 437.888 453.867 438.891 452.566 439.616C451.286 440.341 449.75 440.704 447.958 440.704C445.569 440.704 443.585 440.139 442.006 439.008C440.427 437.899 439.531 436.384 439.318 434.464H442.934C443.211 435.381 443.798 436.117 444.694 436.672C445.611 437.248 446.699 437.536 447.958 437.536C449.43 437.536 450.614 437.088 451.51 436.192C452.427 435.296 452.886 433.995 452.886 432.288V429.344C452.267 430.176 451.425 430.88 450.358 431.456C449.313 432.011 448.118 432.288 446.774 432.288C445.238 432.288 443.83 431.904 442.55 431.136C441.291 430.347 440.289 429.259 439.542 427.872C438.817 426.464 438.454 424.875 438.454 423.104C438.454 421.333 438.817 419.765 439.542 418.4C440.289 417.035 441.291 415.979 442.55 415.232C443.83 414.464 445.238 414.08 446.774 414.08ZM452.886 423.168C452.886 421.952 452.63 420.896 452.118 420C451.627 419.104 450.977 418.421 450.166 417.952C449.355 417.483 448.481 417.248 447.542 417.248C446.603 417.248 445.729 417.483 444.918 417.952C444.107 418.4 443.446 419.072 442.934 419.968C442.443 420.843 442.198 421.888 442.198 423.104C442.198 424.32 442.443 425.387 442.934 426.304C443.446 427.221 444.107 427.925 444.918 428.416C445.75 428.885 446.625 429.12 447.542 429.12C448.481 429.12 449.355 428.885 450.166 428.416C450.977 427.947 451.627 427.264 452.118 426.368C452.63 425.451 452.886 424.384 452.886 423.168ZM460.301 423.104C460.301 421.333 460.664 419.765 461.389 418.4C462.136 417.035 463.139 415.979 464.397 415.232C465.677 414.464 467.085 414.08 468.621 414.08C470.008 414.08 471.213 414.357 472.237 414.912C473.283 415.445 474.115 416.117 474.733 416.928V414.368H478.413V432H474.733V429.376C474.115 430.208 473.272 430.901 472.205 431.456C471.139 432.011 469.923 432.288 468.557 432.288C467.043 432.288 465.656 431.904 464.397 431.136C463.139 430.347 462.136 429.259 461.389 427.872C460.664 426.464 460.301 424.875 460.301 423.104ZM474.733 423.168C474.733 421.952 474.477 420.896 473.965 420C473.475 419.104 472.824 418.421 472.013 417.952C471.203 417.483 470.328 417.248 469.389 417.248C468.451 417.248 467.576 417.483 466.765 417.952C465.955 418.4 465.293 419.072 464.781 419.968C464.291 420.843 464.045 421.888 464.045 423.104C464.045 424.32 464.291 425.387 464.781 426.304C465.293 427.221 465.955 427.925 466.765 428.416C467.597 428.885 468.472 429.12 469.389 429.12C470.328 429.12 471.203 428.885 472.013 428.416C472.824 427.947 473.475 427.264 473.965 426.368C474.477 425.451 474.733 424.384 474.733 423.168ZM499.166 432.224C497.672 432.224 496.328 431.968 495.134 431.456C493.939 430.923 493 430.176 492.318 429.216C491.635 428.256 491.294 427.136 491.294 425.856H495.198C495.283 426.816 495.656 427.605 496.318 428.224C497 428.843 497.95 429.152 499.166 429.152C500.424 429.152 501.406 428.853 502.11 428.256C502.814 427.637 503.166 426.848 503.166 425.888C503.166 425.141 502.942 424.533 502.494 424.064C502.067 423.595 501.523 423.232 500.862 422.976C500.222 422.72 499.326 422.443 498.174 422.144C496.723 421.76 495.539 421.376 494.622 420.992C493.726 420.587 492.958 419.968 492.318 419.136C491.678 418.304 491.358 417.195 491.358 415.808C491.358 414.528 491.678 413.408 492.318 412.448C492.958 411.488 493.854 410.752 495.006 410.24C496.158 409.728 497.491 409.472 499.006 409.472C501.16 409.472 502.92 410.016 504.286 411.104C505.672 412.171 506.44 413.643 506.59 415.52H502.558C502.494 414.709 502.11 414.016 501.406 413.44C500.702 412.864 499.774 412.576 498.622 412.576C497.576 412.576 496.723 412.843 496.062 413.376C495.4 413.909 495.07 414.677 495.07 415.68C495.07 416.363 495.272 416.928 495.678 417.376C496.104 417.803 496.638 418.144 497.278 418.4C497.918 418.656 498.792 418.933 499.902 419.232C501.374 419.637 502.568 420.043 503.486 420.448C504.424 420.853 505.214 421.483 505.854 422.336C506.515 423.168 506.846 424.288 506.846 425.696C506.846 426.827 506.536 427.893 505.918 428.896C505.32 429.899 504.435 430.709 503.262 431.328C502.11 431.925 500.744 432.224 499.166 432.224ZM513.166 412.032C512.505 412.032 511.95 411.808 511.502 411.36C511.054 410.912 510.83 410.357 510.83 409.696C510.83 409.035 511.054 408.48 511.502 408.032C511.95 407.584 512.505 407.36 513.166 407.36C513.806 407.36 514.35 407.584 514.798 408.032C515.246 408.48 515.47 409.035 515.47 409.696C515.47 410.357 515.246 410.912 514.798 411.36C514.35 411.808 513.806 412.032 513.166 412.032ZM514.958 414.368V432H511.31V414.368H514.958ZM528.804 414.08C530.19 414.08 531.428 414.368 532.516 414.944C533.625 415.52 534.489 416.373 535.108 417.504C535.726 418.635 536.036 420 536.036 421.6V432H532.42V422.144C532.42 420.565 532.025 419.36 531.236 418.528C530.446 417.675 529.369 417.248 528.004 417.248C526.638 417.248 525.55 417.675 524.74 418.528C523.95 419.36 523.556 420.565 523.556 422.144V432H519.908V414.368H523.556V416.384C524.153 415.659 524.91 415.093 525.828 414.688C526.766 414.283 527.758 414.08 528.804 414.08ZM564.873 416.384C564.873 417.515 564.607 418.581 564.073 419.584C563.54 420.587 562.687 421.408 561.513 422.048C560.34 422.667 558.836 422.976 557.001 422.976H552.969V432H549.321V409.76H557.001C558.708 409.76 560.148 410.059 561.321 410.656C562.516 411.232 563.401 412.021 563.977 413.024C564.575 414.027 564.873 415.147 564.873 416.384ZM557.001 420C558.388 420 559.423 419.691 560.105 419.072C560.788 418.432 561.129 417.536 561.129 416.384C561.129 413.952 559.753 412.736 557.001 412.736H552.969V420H557.001ZM572.16 416.928C572.694 416.032 573.398 415.339 574.272 414.848C575.168 414.336 576.224 414.08 577.44 414.08V417.856H576.512C575.083 417.856 573.995 418.219 573.248 418.944C572.523 419.669 572.16 420.928 572.16 422.72V432H568.512V414.368H572.16V416.928ZM588.602 432.288C586.938 432.288 585.434 431.915 584.09 431.168C582.746 430.4 581.69 429.333 580.922 427.968C580.154 426.581 579.77 424.981 579.77 423.168C579.77 421.376 580.164 419.787 580.954 418.4C581.743 417.013 582.82 415.947 584.186 415.2C585.551 414.453 587.076 414.08 588.762 414.08C590.447 414.08 591.972 414.453 593.338 415.2C594.703 415.947 595.78 417.013 596.57 418.4C597.359 419.787 597.754 421.376 597.754 423.168C597.754 424.96 597.348 426.549 596.538 427.936C595.727 429.323 594.618 430.4 593.21 431.168C591.823 431.915 590.287 432.288 588.602 432.288ZM588.602 429.12C589.54 429.12 590.415 428.896 591.226 428.448C592.058 428 592.73 427.328 593.242 426.432C593.754 425.536 594.01 424.448 594.01 423.168C594.01 421.888 593.764 420.811 593.274 419.936C592.783 419.04 592.132 418.368 591.322 417.92C590.511 417.472 589.636 417.248 588.698 417.248C587.759 417.248 586.884 417.472 586.074 417.92C585.284 418.368 584.655 419.04 584.186 419.936C583.716 420.811 583.482 421.888 583.482 423.168C583.482 425.067 583.962 426.539 584.922 427.584C585.903 428.608 587.13 429.12 588.602 429.12ZM605.168 416.992C605.787 416.139 606.629 415.445 607.696 414.912C608.784 414.357 609.989 414.08 611.312 414.08C612.869 414.08 614.277 414.453 615.536 415.2C616.795 415.947 617.787 417.013 618.512 418.4C619.237 419.765 619.6 421.333 619.6 423.104C619.6 424.875 619.237 426.464 618.512 427.872C617.787 429.259 616.784 430.347 615.504 431.136C614.245 431.904 612.848 432.288 611.312 432.288C609.947 432.288 608.731 432.021 607.664 431.488C606.619 430.955 605.787 430.272 605.168 429.44V432H601.52V408.32H605.168V416.992ZM615.888 423.104C615.888 421.888 615.632 420.843 615.12 419.968C614.629 419.072 613.968 418.4 613.136 417.952C612.325 417.483 611.451 417.248 610.512 417.248C609.595 417.248 608.72 417.483 607.888 417.952C607.077 418.421 606.416 419.104 605.904 420C605.413 420.896 605.168 421.952 605.168 423.168C605.168 424.384 605.413 425.451 605.904 426.368C606.416 427.264 607.077 427.947 607.888 428.416C608.72 428.885 609.595 429.12 610.512 429.12C611.451 429.12 612.325 428.885 613.136 428.416C613.968 427.925 614.629 427.221 615.12 426.304C615.632 425.387 615.888 424.32 615.888 423.104ZM627.016 408.32V432H623.368V408.32H627.016ZM648.125 422.752C648.125 423.413 648.082 424.011 647.997 424.544H634.525C634.632 425.952 635.154 427.083 636.093 427.936C637.032 428.789 638.184 429.216 639.549 429.216C641.512 429.216 642.898 428.395 643.709 426.752H647.645C647.112 428.373 646.141 429.707 644.733 430.752C643.346 431.776 641.618 432.288 639.549 432.288C637.864 432.288 636.349 431.915 635.005 431.168C633.682 430.4 632.637 429.333 631.869 427.968C631.122 426.581 630.749 424.981 630.749 423.168C630.749 421.355 631.112 419.765 631.837 418.4C632.584 417.013 633.618 415.947 634.941 415.2C636.285 414.453 637.821 414.08 639.549 414.08C641.213 414.08 642.696 414.443 643.997 415.168C645.298 415.893 646.312 416.917 647.037 418.24C647.762 419.541 648.125 421.045 648.125 422.752ZM644.317 421.6C644.296 420.256 643.816 419.179 642.877 418.368C641.938 417.557 640.776 417.152 639.389 417.152C638.13 417.152 637.053 417.557 636.157 418.368C635.261 419.157 634.728 420.235 634.557 421.6H644.317ZM673.219 414.08C674.606 414.08 675.843 414.368 676.931 414.944C678.04 415.52 678.904 416.373 679.523 417.504C680.163 418.635 680.483 420 680.483 421.6V432H676.867V422.144C676.867 420.565 676.472 419.36 675.683 418.528C674.894 417.675 673.816 417.248 672.451 417.248C671.086 417.248 669.998 417.675 669.187 418.528C668.398 419.36 668.003 420.565 668.003 422.144V432H664.387V422.144C664.387 420.565 663.992 419.36 663.203 418.528C662.414 417.675 661.336 417.248 659.971 417.248C658.606 417.248 657.518 417.675 656.707 418.528C655.918 419.36 655.523 420.565 655.523 422.144V432H651.875V414.368H655.523V416.384C656.12 415.659 656.878 415.093 657.795 414.688C658.712 414.283 659.694 414.08 660.739 414.08C662.147 414.08 663.406 414.379 664.515 414.976C665.624 415.573 666.478 416.437 667.075 417.568C667.608 416.501 668.44 415.659 669.571 415.04C670.702 414.4 671.918 414.08 673.219 414.08ZM684.069 423.104C684.069 421.333 684.432 419.765 685.157 418.4C685.904 417.035 686.906 415.979 688.165 415.232C689.445 414.464 690.853 414.08 692.389 414.08C693.776 414.08 694.981 414.357 696.005 414.912C697.05 415.445 697.882 416.117 698.501 416.928V414.368H702.181V432H698.501V429.376C697.882 430.208 697.04 430.901 695.973 431.456C694.906 432.011 693.69 432.288 692.325 432.288C690.81 432.288 689.424 431.904 688.165 431.136C686.906 430.347 685.904 429.259 685.157 427.872C684.432 426.464 684.069 424.875 684.069 423.104ZM698.501 423.168C698.501 421.952 698.245 420.896 697.733 420C697.242 419.104 696.592 418.421 695.781 417.952C694.97 417.483 694.096 417.248 693.157 417.248C692.218 417.248 691.344 417.483 690.533 417.952C689.722 418.4 689.061 419.072 688.549 419.968C688.058 420.843 687.813 421.888 687.813 423.104C687.813 424.32 688.058 425.387 688.549 426.304C689.061 427.221 689.722 427.925 690.533 428.416C691.365 428.885 692.24 429.12 693.157 429.12C694.096 429.12 694.97 428.885 695.781 428.416C696.592 427.947 697.242 427.264 697.733 426.368C698.245 425.451 698.501 424.384 698.501 423.168ZM713.532 432.288C712.146 432.288 710.898 432.043 709.788 431.552C708.7 431.04 707.836 430.357 707.196 429.504C706.556 428.629 706.215 427.659 706.172 426.592H709.948C710.012 427.339 710.364 427.968 711.004 428.48C711.666 428.971 712.487 429.216 713.468 429.216C714.492 429.216 715.282 429.024 715.836 428.64C716.412 428.235 716.7 427.723 716.7 427.104C716.7 426.443 716.38 425.952 715.74 425.632C715.122 425.312 714.13 424.96 712.764 424.576C711.442 424.213 710.364 423.861 709.532 423.52C708.7 423.179 707.975 422.656 707.356 421.952C706.759 421.248 706.46 420.32 706.46 419.168C706.46 418.229 706.738 417.376 707.292 416.608C707.847 415.819 708.636 415.2 709.66 414.752C710.706 414.304 711.9 414.08 713.244 414.08C715.25 414.08 716.86 414.592 718.076 415.616C719.314 416.619 719.975 417.995 720.06 419.744H716.412C716.348 418.955 716.028 418.325 715.452 417.856C714.876 417.387 714.098 417.152 713.116 417.152C712.156 417.152 711.42 417.333 710.908 417.696C710.396 418.059 710.14 418.539 710.14 419.136C710.14 419.605 710.311 420 710.652 420.32C710.994 420.64 711.41 420.896 711.9 421.088C712.391 421.259 713.116 421.483 714.076 421.76C715.356 422.101 716.402 422.453 717.212 422.816C718.044 423.157 718.759 423.669 719.356 424.352C719.954 425.035 720.263 425.941 720.284 427.072C720.284 428.075 720.007 428.971 719.452 429.76C718.898 430.549 718.108 431.168 717.084 431.616C716.082 432.064 714.898 432.288 713.532 432.288ZM725.858 432.224C725.197 432.224 724.642 432 724.194 431.552C723.746 431.104 723.522 430.549 723.522 429.888C723.522 429.227 723.746 428.672 724.194 428.224C724.642 427.776 725.197 427.552 725.858 427.552C726.498 427.552 727.042 427.776 727.49 428.224C727.938 428.672 728.162 429.227 728.162 429.888C728.162 430.549 727.938 431.104 727.49 431.552C727.042 432 726.498 432.224 725.858 432.224Z" fill="white" fill-opacity="0.75"/>
<path d="M196.24 488.656V578H178.32V519.888L154.384 578H140.816L116.752 519.888V578H98.832V488.656H119.184L147.6 555.088L176.016 488.656H196.24ZM254.149 578.896C245.786 578.896 238.106 576.933 231.109 573.008C224.112 569.083 218.565 563.664 214.469 556.752C210.373 549.755 208.325 541.861 208.325 533.072C208.325 524.368 210.373 516.56 214.469 509.648C218.565 502.651 224.112 497.189 231.109 493.264C238.106 489.339 245.786 487.376 254.149 487.376C262.597 487.376 270.277 489.339 277.189 493.264C284.186 497.189 289.69 502.651 293.701 509.648C297.797 516.56 299.845 524.368 299.845 533.072C299.845 541.861 297.797 549.755 293.701 556.752C289.69 563.664 284.186 569.083 277.189 573.008C270.192 576.933 262.512 578.896 254.149 578.896ZM254.149 562.896C259.525 562.896 264.261 561.701 268.357 559.312C272.453 556.837 275.653 553.339 277.957 548.816C280.261 544.293 281.413 539.045 281.413 533.072C281.413 527.099 280.261 521.893 277.957 517.456C275.653 512.933 272.453 509.477 268.357 507.088C264.261 504.699 259.525 503.504 254.149 503.504C248.773 503.504 243.994 504.699 239.813 507.088C235.717 509.477 232.517 512.933 230.213 517.456C227.909 521.893 226.757 527.099 226.757 533.072C226.757 539.045 227.909 544.293 230.213 548.816C232.517 553.339 235.717 556.837 239.813 559.312C243.994 561.701 248.773 562.896 254.149 562.896ZM388.313 578H370.393L329.817 516.688V578H311.897V488.528H329.817L370.393 549.968V488.528H388.313V578ZM459.526 560.976H423.942L418.054 578H399.238L431.366 488.528H452.23L484.358 578H465.414L459.526 560.976ZM454.662 546.64L441.734 509.264L428.806 546.64H454.662ZM541.167 578L521.455 543.184H513.007V578H495.087V488.656H528.623C535.535 488.656 541.423 489.893 546.287 492.368C551.151 494.757 554.778 498.043 557.167 502.224C559.642 506.32 560.879 510.928 560.879 516.048C560.879 521.936 559.172 527.269 555.759 532.048C552.346 536.741 547.268 539.984 540.527 541.776L561.903 578H541.167ZM513.007 529.744H527.983C532.847 529.744 536.474 528.592 538.863 526.288C541.252 523.899 542.447 520.613 542.447 516.432C542.447 512.336 541.252 509.179 538.863 506.96C536.474 504.656 532.847 503.504 527.983 503.504H513.007V529.744ZM571.455 533.2C571.455 524.411 573.418 516.56 577.343 509.648C581.354 502.651 586.772 497.232 593.599 493.392C600.511 489.467 608.234 487.504 616.767 487.504C626.751 487.504 635.498 490.064 643.007 495.184C650.516 500.304 655.764 507.387 658.751 516.432H638.143C636.095 512.165 633.194 508.965 629.439 506.832C625.77 504.699 621.503 503.632 616.639 503.632C611.434 503.632 606.783 504.869 602.687 507.344C598.676 509.733 595.519 513.147 593.215 517.584C590.996 522.021 589.887 527.227 589.887 533.2C589.887 539.088 590.996 544.293 593.215 548.816C595.519 553.253 598.676 556.709 602.687 559.184C606.783 561.573 611.434 562.768 616.639 562.768C621.503 562.768 625.77 561.701 629.439 559.568C633.194 557.349 636.095 554.107 638.143 549.84H658.751C655.764 558.971 650.516 566.096 643.007 571.216C635.583 576.251 626.836 578.768 616.767 578.768C608.234 578.768 600.511 576.848 593.599 573.008C586.772 569.083 581.354 563.664 577.343 556.752C573.418 549.84 571.455 541.989 571.455 533.2ZM727.561 560.976H691.977L686.089 578H667.273L699.401 488.528H720.265L752.393 578H733.449L727.561 560.976ZM722.697 546.64L709.769 509.264L696.841 546.64H722.697ZM130.064 633.656C139.451 633.656 147.685 635.491 154.768 639.16C161.936 642.829 167.44 648.077 171.28 654.904C175.205 661.645 177.168 669.496 177.168 678.456C177.168 687.416 175.205 695.267 171.28 702.008C167.44 708.664 161.936 713.827 154.768 717.496C147.685 721.165 139.451 723 130.064 723H98.832V633.656H130.064ZM129.424 707.768C138.811 707.768 146.064 705.208 151.184 700.088C156.304 694.968 158.864 687.757 158.864 678.456C158.864 669.155 156.304 661.901 151.184 656.696C146.064 651.405 138.811 648.76 129.424 648.76H116.752V707.768H129.424ZM207.222 648.12V670.52H237.302V684.728H207.222V708.408H241.142V723H189.302V633.528H241.142V648.12H207.222ZM274.067 708.792H303.507V723H256.147V633.656H274.067V708.792ZM331.537 633.656V723H313.617V633.656H331.537ZM428.218 633.656L395.45 723H373.69L340.922 633.656H360.122L384.698 704.696L409.146 633.656H428.218ZM455.602 648.12V670.52H485.682V684.728H455.602V708.408H489.522V723H437.682V633.528H489.522V648.12H455.602ZM550.607 723L530.895 688.184H522.447V723H504.527V633.656H538.063C544.975 633.656 550.863 634.893 555.727 637.368C560.591 639.757 564.218 643.043 566.607 647.224C569.082 651.32 570.319 655.928 570.319 661.048C570.319 666.936 568.612 672.269 565.199 677.048C561.786 681.741 556.708 684.984 549.967 686.776L571.343 723H550.607ZM522.447 674.744H537.423C542.287 674.744 545.914 673.592 548.303 671.288C550.692 668.899 551.887 665.613 551.887 661.432C551.887 657.336 550.692 654.179 548.303 651.96C545.914 649.656 542.287 648.504 537.423 648.504H522.447V674.744ZM656.287 633.656L626.079 691.896V723H608.159V691.896L577.823 633.656H598.047L617.247 674.488L636.319 633.656H656.287Z" fill="white"/>
<path d="M124.375 855.125C124.375 858.577 121.577 861.375 118.125 861.375C114.673 861.375 111.875 858.577 111.875 855.125M124.375 855.125C124.375 851.673 121.577 848.875 118.125 848.875C114.673 848.875 111.875 851.673 111.875 855.125M124.375 855.125H149.375M111.875 855.125H104.062C101.474 855.125 99.375 853.026 99.375 850.437V836.377M171.25 855.125C171.25 858.577 168.452 861.375 165 861.375C161.548 861.375 158.75 858.577 158.75 855.125M171.25 855.125C171.25 851.673 168.452 848.875 165 848.875C161.548 848.875 158.75 851.673 158.75 855.125M171.25 855.125L175.937 855.125C178.526 855.125 180.64 853.024 180.481 850.44C179.606 836.242 174.78 823.112 167.09 812.137C165.581 809.983 163.137 808.699 160.511 808.555H149.375M158.75 855.125H149.375M149.375 808.555V804.562C149.375 802.197 147.615 800.197 145.263 799.953C138.397 799.24 131.429 798.875 124.375 798.875C117.321 798.875 110.353 799.24 103.487 799.953C101.135 800.197 99.375 802.197 99.375 804.562V836.377M149.375 808.555V836.377M149.375 855.125V836.377M149.375 836.377H99.375" stroke="white" stroke-width="4" stroke-linecap="round" stroke-linejoin="round"/>
</g>
<defs>
<filter id="filter0_f_704_163" x="411" y="156.748" width="1111.27" height="1111.27" filterUnits="userSpaceOnUse" color-interpolation-filters="sRGB">
<feFlood flood-opacity="0" result="BackgroundImageFix"/>
<feBlend mode="normal" in="SourceGraphic" in2="BackgroundImageFix" result="shape"/>
<feGaussianBlur stdDeviation="100" result="effect1_foregroundBlur_704_163"/>
</filter>
<filter id="filter1_f_704_163" x="622.937" y="111" width="919.926" height="836.871" filterUnits="userSpaceOnUse" color-interpolation-filters="sRGB">
<feFlood flood-opacity="0" result="BackgroundImageFix"/>
<feBlend mode="normal" in="SourceGraphic" in2="BackgroundImageFix" result="shape"/>
<feGaussianBlur stdDeviation="75" result="effect1_foregroundBlur_704_163"/>
</filter>
<linearGradient id="paint0_linear_704_163" x1="684.521" y1="405.762" x2="1180.93" y2="1068.02" gradientUnits="userSpaceOnUse">
<stop stop-color="#FF5C00"/>
<stop offset="1" stop-color="#FFB800" stop-opacity="0"/>
</linearGradient>
<linearGradient id="paint1_linear_704_163" x1="1082.9" y1="261" x2="1082.9" y2="976.828" gradientUnits="userSpaceOnUse">
<stop stop-color="#FF5C00"/>
<stop offset="1" stop-color="#FFB800" stop-opacity="0"/>
</linearGradient>
<clipPath id="clip0_704_163">
<rect width="1080" height="1350" fill="white"/>
</clipPath>
</defs>
</svg>
